<svg width="80" height="80" viewBox="0 0 80 80" fill="none" xmlns="http://www.w3.org/2000/svg">
<path d="M17.323 25.597C29.847 13.334 50.153 13.334 62.677 25.597L64.185 27.073C64.3336 27.2172 64.4517 27.3898 64.5323 27.5804C64.6129 27.7711 64.6545 27.976 64.6545 28.183C64.6545 28.39 64.6129 28.595 64.5323 28.7856C64.4517 28.9763 64.3336 29.1488 64.185 29.293L59.028 34.341C58.8762 34.4882 58.673 34.5705 58.4615 34.5705C58.2501 34.5705 58.0469 34.4882 57.895 34.341L55.82 32.311C47.083 23.756 32.917 23.756 24.18 32.311L21.958 34.485C21.8061 34.6325 21.6028 34.715 21.391 34.715C21.1793 34.715 20.9759 34.6325 20.824 34.485L15.668 29.437C15.5195 29.2928 15.4014 29.1203 15.3208 28.9296C15.2401 28.739 15.1986 28.534 15.1986 28.327C15.1986 28.12 15.2401 27.9151 15.3208 27.7244C15.4014 27.5338 15.5195 27.3612 15.668 27.217L17.323 25.597V25.597ZM73.341 36.037L77.931 40.531C78.0796 40.6752 78.1977 40.8478 78.2783 41.0384C78.3589 41.2291 78.4005 41.434 78.4005 41.641C78.4005 41.848 78.3589 42.053 78.2783 42.2436C78.1977 42.4343 78.0796 42.6068 77.931 42.751L57.238 63.011C56.9342 63.306 56.5275 63.4709 56.104 63.4709C55.6806 63.4709 55.2738 63.306 54.97 63.011L40.284 48.631C40.2081 48.5573 40.1064 48.5161 40.0005 48.5161C39.8947 48.5161 39.793 48.5573 39.717 48.631L25.03 63.012C24.7262 63.307 24.3195 63.4719 23.896 63.4719C23.4726 63.4719 23.0658 63.307 22.762 63.012L2.07004 42.751C1.9215 42.6068 1.80341 42.4343 1.72277 42.2436C1.64214 42.053 1.60059 41.848 1.60059 41.641C1.60059 41.434 1.64214 41.2291 1.72277 41.0384C1.80341 40.8478 1.9215 40.6752 2.07004 40.531L6.65904 36.037C6.96285 35.7421 7.36961 35.5771 7.79304 35.5771C8.21646 35.5771 8.62323 35.7421 8.92704 36.037L23.613 50.417C23.77 50.57 24.023 50.57 24.18 50.417L38.866 36.037C39.1698 35.7421 39.5766 35.5771 40 35.5771C40.4235 35.5771 40.8302 35.7421 41.134 36.037L55.82 50.417C55.977 50.57 56.23 50.57 56.387 50.417L71.073 36.037C71.3768 35.7421 71.7836 35.5771 72.207 35.5771C72.6305 35.5771 73.0372 35.7421 73.341 36.037Z" fill="#03ACDA"/>
<path d="M17.323 25.597C29.847 13.334 50.153 13.334 62.677 25.597L64.185 27.073C64.3336 27.2172 64.4517 27.3898 64.5323 27.5804C64.6129 27.7711 64.6545 27.976 64.6545 28.183C64.6545 28.39 64.6129 28.595 64.5323 28.7856C64.4517 28.9763 64.3336 29.1488 64.185 29.293L59.028 34.341C58.8762 34.4882 58.673 34.5705 58.4615 34.5705C58.2501 34.5705 58.0469 34.4882 57.895 34.341L55.82 32.311C47.083 23.756 32.917 23.756 24.18 32.311L21.958 34.485C21.8061 34.6325 21.6028 34.715 21.391 34.715C21.1793 34.715 20.9759 34.6325 20.824 34.485L15.668 29.437C15.5195 29.2928 15.4014 29.1203 15.3208 28.9296C15.2401 28.739 15.1986 28.534 15.1986 28.327C15.1986 28.12 15.2401 27.9151 15.3208 27.7244C15.4014 27.5338 15.5195 27.3612 15.668 27.217L17.323 25.597V25.597ZM73.341 36.037L77.931 40.531C78.0796 40.6752 78.1977 40.8478 78.2783 41.0384C78.3589 41.2291 78.4005 41.434 78.4005 41.641C78.4005 41.848 78.3589 42.053 78.2783 42.2436C78.1977 42.4343 78.0796 42.6068 77.931 42.751L57.238 63.011C56.9342 63.306 56.5275 63.4709 56.104 63.4709C55.6806 63.4709 55.2738 63.306 54.97 63.011L40.284 48.631C40.2081 48.5573 40.1064 48.5161 40.0005 48.5161C39.8947 48.5161 39.793 48.5573 39.717 48.631L25.03 63.012C24.7262 63.307 24.3195 63.4719 23.896 63.4719C23.4726 63.4719 23.0658 63.307 22.762 63.012L2.07004 42.751C1.9215 42.6068 1.80341 42.4343 1.72277 42.2436C1.64214 42.053 1.60059 41.848 1.60059 41.641C1.60059 41.434 1.64214 41.2291 1.72277 41.0384C1.80341 40.8478 1.9215 40.6752 2.07004 40.531L6.65904 36.037C6.96285 35.7421 7.36961 35.5771 7.79304 35.5771C8.21646 35.5771 8.62323 35.7421 8.92704 36.037L23.613 50.417C23.77 50.57 24.023 50.57 24.18 50.417L38.866 36.037C39.1698 35.7421 39.5766 35.5771 40 35.5771C40.4235 35.5771 40.8302 35.7421 41.134 36.037L55.82 50.417C55.977 50.57 56.23 50.57 56.387 50.417L71.073 36.037C71.3768 35.7421 71.7836 35.5771 72.207 35.5771C72.6305 35.5771 73.0372 35.7421 73.341 36.037Z" fill="url(#paint0_radial_642_4247)"/>
<path d="M17.323 25.597C29.847 13.334 50.153 13.334 62.677 25.597L64.185 27.073C64.3336 27.2172 64.4517 27.3898 64.5323 27.5804C64.6129 27.7711 64.6545 27.976 64.6545 28.183C64.6545 28.39 64.6129 28.595 64.5323 28.7856C64.4517 28.9763 64.3336 29.1488 64.185 29.293L59.028 34.341C58.8762 34.4882 58.673 34.5705 58.4615 34.5705C58.2501 34.5705 58.0469 34.4882 57.895 34.341L55.82 32.311C47.083 23.756 32.917 23.756 24.18 32.311L21.958 34.485C21.8061 34.6325 21.6028 34.715 21.391 34.715C21.1793 34.715 20.9759 34.6325 20.824 34.485L15.668 29.437C15.5195 29.2928 15.4014 29.1203 15.3208 28.9296C15.2401 28.739 15.1986 28.534 15.1986 28.327C15.1986 28.12 15.2401 27.9151 15.3208 27.7244C15.4014 27.5338 15.5195 27.3612 15.668 27.217L17.323 25.597V25.597ZM73.341 36.037L77.931 40.531C78.0796 40.6752 78.1977 40.8478 78.2783 41.0384C78.3589 41.2291 78.4005 41.434 78.4005 41.641C78.4005 41.848 78.3589 42.053 78.2783 42.2436C78.1977 42.4343 78.0796 42.6068 77.931 42.751L57.238 63.011C56.9342 63.306 56.5275 63.4709 56.104 63.4709C55.6806 63.4709 55.2738 63.306 54.97 63.011L40.284 48.631C40.2081 48.5573 40.1064 48.5161 40.0005 48.5161C39.8947 48.5161 39.793 48.5573 39.717 48.631L25.03 63.012C24.7262 63.307 24.3195 63.4719 23.896 63.4719C23.4726 63.4719 23.0658 63.307 22.762 63.012L2.07004 42.751C1.9215 42.6068 1.80341 42.4343 1.72277 42.2436C1.64214 42.053 1.60059 41.848 1.60059 41.641C1.60059 41.434 1.64214 41.2291 1.72277 41.0384C1.80341 40.8478 1.9215 40.6752 2.07004 40.531L6.65904 36.037C6.96285 35.7421 7.36961 35.5771 7.79304 35.5771C8.21646 35.5771 8.62323 35.7421 8.92704 36.037L23.613 50.417C23.77 50.57 24.023 50.57 24.18 50.417L38.866 36.037C39.1698 35.7421 39.5766 35.5771 40 35.5771C40.4235 35.5771 40.8302 35.7421 41.134 36.037L55.82 50.417C55.977 50.57 56.23 50.57 56.387 50.417L71.073 36.037C71.3768 35.7421 71.7836 35.5771 72.207 35.5771C72.6305 35.5771 73.0372 35.7421 73.341 36.037Z" fill="url(#paint1_radial_642_4247)"/>
<path d="M17.323 25.597C29.847 13.334 50.153 13.334 62.677 25.597L64.185 27.073C64.3336 27.2172 64.4517 27.3898 64.5323 27.5804C64.6129 27.7711 64.6545 27.976 64.6545 28.183C64.6545 28.39 64.6129 28.595 64.5323 28.7856C64.4517 28.9763 64.3336 29.1488 64.185 29.293L59.028 34.341C58.8762 34.4882 58.673 34.5705 58.4615 34.5705C58.2501 34.5705 58.0469 34.4882 57.895 34.341L55.82 32.311C47.083 23.756 32.917 23.756 24.18 32.311L21.958 34.485C21.8061 34.6325 21.6028 34.715 21.391 34.715C21.1793 34.715 20.9759 34.6325 20.824 34.485L15.668 29.437C15.5195 29.2928 15.4014 29.1203 15.3208 28.9296C15.2401 28.739 15.1986 28.534 15.1986 28.327C15.1986 28.12 15.2401 27.9151 15.3208 27.7244C15.4014 27.5338 15.5195 27.3612 15.668 27.217L17.323 25.597V25.597ZM73.341 36.037L77.931 40.531C78.0796 40.6752 78.1977 40.8478 78.2783 41.0384C78.3589 41.2291 78.4005 41.434 78.4005 41.641C78.4005 41.848 78.3589 42.053 78.2783 42.2436C78.1977 42.4343 78.0796 42.6068 77.931 42.751L57.238 63.011C56.9342 63.306 56.5275 63.4709 56.104 63.4709C55.6806 63.4709 55.2738 63.306 54.97 63.011L40.284 48.631C40.2081 48.5573 40.1064 48.5161 40.0005 48.5161C39.8947 48.5161 39.793 48.5573 39.717 48.631L25.03 63.012C24.7262 63.307 24.3195 63.4719 23.896 63.4719C23.4726 63.4719 23.0658 63.307 22.762 63.012L2.07004 42.751C1.9215 42.6068 1.80341 42.4343 1.72277 42.2436C1.64214 42.053 1.60059 41.848 1.60059 41.641C1.60059 41.434 1.64214 41.2291 1.72277 41.0384C1.80341 40.8478 1.9215 40.6752 2.07004 40.531L6.65904 36.037C6.96285 35.7421 7.36961 35.5771 7.79304 35.5771C8.21646 35.5771 8.62323 35.7421 8.92704 36.037L23.613 50.417C23.77 50.57 24.023 50.57 24.18 50.417L38.866 36.037C39.1698 35.7421 39.5766 35.5771 40 35.5771C40.4235 35.5771 40.8302 35.7421 41.134 36.037L55.82 50.417C55.977 50.57 56.23 50.57 56.387 50.417L71.073 36.037C71.3768 35.7421 71.7836 35.5771 72.207 35.5771C72.6305 35.5771 73.0372 35.7421 73.341 36.037Z" fill="url(#paint2_radial_642_4247)"/>
<path d="M17.323 25.597C29.847 13.334 50.153 13.334 62.677 25.597L64.185 27.073C64.3336 27.2172 64.4517 27.3898 64.5323 27.5804C64.6129 27.7711 64.6545 27.976 64.6545 28.183C64.6545 28.39 64.6129 28.595 64.5323 28.7856C64.4517 28.9763 64.3336 29.1488 64.185 29.293L59.028 34.341C58.8762 34.4882 58.673 34.5705 58.4615 34.5705C58.2501 34.5705 58.0469 34.4882 57.895 34.341L55.82 32.311C47.083 23.756 32.917 23.756 24.18 32.311L21.958 34.485C21.8061 34.6325 21.6028 34.715 21.391 34.715C21.1793 34.715 20.9759 34.6325 20.824 34.485L15.668 29.437C15.5195 29.2928 15.4014 29.1203 15.3208 28.9296C15.2401 28.739 15.1986 28.534 15.1986 28.327C15.1986 28.12 15.2401 27.9151 15.3208 27.7244C15.4014 27.5338 15.5195 27.3612 15.668 27.217L17.323 25.597V25.597ZM73.341 36.037L77.931 40.531C78.0796 40.6752 78.1977 40.8478 78.2783 41.0384C78.3589 41.2291 78.4005 41.434 78.4005 41.641C78.4005 41.848 78.3589 42.053 78.2783 42.2436C78.1977 42.4343 78.0796 42.6068 77.931 42.751L57.238 63.011C56.9342 63.306 56.5275 63.4709 56.104 63.4709C55.6806 63.4709 55.2738 63.306 54.97 63.011L40.284 48.631C40.2081 48.5573 40.1064 48.5161 40.0005 48.5161C39.8947 48.5161 39.793 48.5573 39.717 48.631L25.03 63.012C24.7262 63.307 24.3195 63.4719 23.896 63.4719C23.4726 63.4719 23.0658 63.307 22.762 63.012L2.07004 42.751C1.9215 42.6068 1.80341 42.4343 1.72277 42.2436C1.64214 42.053 1.60059 41.848 1.60059 41.641C1.60059 41.434 1.64214 41.2291 1.72277 41.0384C1.80341 40.8478 1.9215 40.6752 2.07004 40.531L6.65904 36.037C6.96285 35.7421 7.36961 35.5771 7.79304 35.5771C8.21646 35.5771 8.62323 35.7421 8.92704 36.037L23.613 50.417C23.77 50.57 24.023 50.57 24.18 50.417L38.866 36.037C39.1698 35.7421 39.5766 35.5771 40 35.5771C40.4235 35.5771 40.8302 35.7421 41.134 36.037L55.82 50.417C55.977 50.57 56.23 50.57 56.387 50.417L71.073 36.037C71.3768 35.7421 71.7836 35.5771 72.207 35.5771C72.6305 35.5771 73.0372 35.7421 73.341 36.037Z" fill="url(#paint3_radial_642_4247)"/>
<path d="M17.323 25.597C29.847 13.334 50.153 13.334 62.677 25.597L64.185 27.073C64.3336 27.2172 64.4517 27.3898 64.5323 27.5804C64.6129 27.7711 64.6545 27.976 64.6545 28.183C64.6545 28.39 64.6129 28.595 64.5323 28.7856C64.4517 28.9763 64.3336 29.1488 64.185 29.293L59.028 34.341C58.8762 34.4882 58.673 34.5705 58.4615 34.5705C58.2501 34.5705 58.0469 34.4882 57.895 34.341L55.82 32.311C47.083 23.756 32.917 23.756 24.18 32.311L21.958 34.485C21.8061 34.6325 21.6028 34.715 21.391 34.715C21.1793 34.715 20.9759 34.6325 20.824 34.485L15.668 29.437C15.5195 29.2928 15.4014 29.1203 15.3208 28.9296C15.2401 28.739 15.1986 28.534 15.1986 28.327C15.1986 28.12 15.2401 27.9151 15.3208 27.7244C15.4014 27.5338 15.5195 27.3612 15.668 27.217L17.323 25.597V25.597ZM73.341 36.037L77.931 40.531C78.0796 40.6752 78.1977 40.8478 78.2783 41.0384C78.3589 41.2291 78.4005 41.434 78.4005 41.641C78.4005 41.848 78.3589 42.053 78.2783 42.2436C78.1977 42.4343 78.0796 42.6068 77.931 42.751L57.238 63.011C56.9342 63.306 56.5275 63.4709 56.104 63.4709C55.6806 63.4709 55.2738 63.306 54.97 63.011L40.284 48.631C40.2081 48.5573 40.1064 48.5161 40.0005 48.5161C39.8947 48.5161 39.793 48.5573 39.717 48.631L25.03 63.012C24.7262 63.307 24.3195 63.4719 23.896 63.4719C23.4726 63.4719 23.0658 63.307 22.762 63.012L2.07004 42.751C1.9215 42.6068 1.80341 42.4343 1.72277 42.2436C1.64214 42.053 1.60059 41.848 1.60059 41.641C1.60059 41.434 1.64214 41.2291 1.72277 41.0384C1.80341 40.8478 1.9215 40.6752 2.07004 40.531L6.65904 36.037C6.96285 35.7421 7.36961 35.5771 7.79304 35.5771C8.21646 35.5771 8.62323 35.7421 8.92704 36.037L23.613 50.417C23.77 50.57 24.023 50.57 24.18 50.417L38.866 36.037C39.1698 35.7421 39.5766 35.5771 40 35.5771C40.4235 35.5771 40.8302 35.7421 41.134 36.037L55.82 50.417C55.977 50.57 56.23 50.57 56.387 50.417L71.073 36.037C71.3768 35.7421 71.7836 35.5771 72.207 35.5771C72.6305 35.5771 73.0372 35.7421 73.341 36.037Z" fill="url(#paint4_radial_642_4247)"/>
<path d="M17.323 25.597C29.847 13.334 50.153 13.334 62.677 25.597L64.185 27.073C64.3336 27.2172 64.4517 27.3898 64.5323 27.5804C64.6129 27.7711 64.6545 27.976 64.6545 28.183C64.6545 28.39 64.6129 28.595 64.5323 28.7856C64.4517 28.9763 64.3336 29.1488 64.185 29.293L59.028 34.341C58.8762 34.4882 58.673 34.5705 58.4615 34.5705C58.2501 34.5705 58.0469 34.4882 57.895 34.341L55.82 32.311C47.083 23.756 32.917 23.756 24.18 32.311L21.958 34.485C21.8061 34.6325 21.6028 34.715 21.391 34.715C21.1793 34.715 20.9759 34.6325 20.824 34.485L15.668 29.437C15.5195 29.2928 15.4014 29.1203 15.3208 28.9296C15.2401 28.739 15.1986 28.534 15.1986 28.327C15.1986 28.12 15.2401 27.9151 15.3208 27.7244C15.4014 27.5338 15.5195 27.3612 15.668 27.217L17.323 25.597V25.597ZM73.341 36.037L77.931 40.531C78.0796 40.6752 78.1977 40.8478 78.2783 41.0384C78.3589 41.2291 78.4005 41.434 78.4005 41.641C78.4005 41.848 78.3589 42.053 78.2783 42.2436C78.1977 42.4343 78.0796 42.6068 77.931 42.751L57.238 63.011C56.9342 63.306 56.5275 63.4709 56.104 63.4709C55.6806 63.4709 55.2738 63.306 54.97 63.011L40.284 48.631C40.2081 48.5573 40.1064 48.5161 40.0005 48.5161C39.8947 48.5161 39.793 48.5573 39.717 48.631L25.03 63.012C24.7262 63.307 24.3195 63.4719 23.896 63.4719C23.4726 63.4719 23.0658 63.307 22.762 63.012L2.07004 42.751C1.9215 42.6068 1.80341 42.4343 1.72277 42.2436C1.64214 42.053 1.60059 41.848 1.60059 41.641C1.60059 41.434 1.64214 41.2291 1.72277 41.0384C1.80341 40.8478 1.9215 40.6752 2.07004 40.531L6.65904 36.037C6.96285 35.7421 7.36961 35.5771 7.79304 35.5771C8.21646 35.5771 8.62323 35.7421 8.92704 36.037L23.613 50.417C23.77 50.57 24.023 50.57 24.18 50.417L38.866 36.037C39.1698 35.7421 39.5766 35.5771 40 35.5771C40.4235 35.5771 40.8302 35.7421 41.134 36.037L55.82 50.417C55.977 50.57 56.23 50.57 56.387 50.417L71.073 36.037C71.3768 35.7421 71.7836 35.5771 72.207 35.5771C72.6305 35.5771 73.0372 35.7421 73.341 36.037Z" fill="url(#paint5_radial_642_4247)"/>
<path d="M17.323 25.597C29.847 13.334 50.153 13.334 62.677 25.597L64.185 27.073C64.3336 27.2172 64.4517 27.3898 64.5323 27.5804C64.6129 27.7711 64.6545 27.976 64.6545 28.183C64.6545 28.39 64.6129 28.595 64.5323 28.7856C64.4517 28.9763 64.3336 29.1488 64.185 29.293L59.028 34.341C58.8762 34.4882 58.673 34.5705 58.4615 34.5705C58.2501 34.5705 58.0469 34.4882 57.895 34.341L55.82 32.311C47.083 23.756 32.917 23.756 24.18 32.311L21.958 34.485C21.8061 34.6325 21.6028 34.715 21.391 34.715C21.1793 34.715 20.9759 34.6325 20.824 34.485L15.668 29.437C15.5195 29.2928 15.4014 29.1203 15.3208 28.9296C15.2401 28.739 15.1986 28.534 15.1986 28.327C15.1986 28.12 15.2401 27.9151 15.3208 27.7244C15.4014 27.5338 15.5195 27.3612 15.668 27.217L17.323 25.597V25.597ZM73.341 36.037L77.931 40.531C78.0796 40.6752 78.1977 40.8478 78.2783 41.0384C78.3589 41.2291 78.4005 41.434 78.4005 41.641C78.4005 41.848 78.3589 42.053 78.2783 42.2436C78.1977 42.4343 78.0796 42.6068 77.931 42.751L57.238 63.011C56.9342 63.306 56.5275 63.4709 56.104 63.4709C55.6806 63.4709 55.2738 63.306 54.97 63.011L40.284 48.631C40.2081 48.5573 40.1064 48.5161 40.0005 48.5161C39.8947 48.5161 39.793 48.5573 39.717 48.631L25.03 63.012C24.7262 63.307 24.3195 63.4719 23.896 63.4719C23.4726 63.4719 23.0658 63.307 22.762 63.012L2.07004 42.751C1.9215 42.6068 1.80341 42.4343 1.72277 42.2436C1.64214 42.053 1.60059 41.848 1.60059 41.641C1.60059 41.434 1.64214 41.2291 1.72277 41.0384C1.80341 40.8478 1.9215 40.6752 2.07004 40.531L6.65904 36.037C6.96285 35.7421 7.36961 35.5771 7.79304 35.5771C8.21646 35.5771 8.62323 35.7421 8.92704 36.037L23.613 50.417C23.77 50.57 24.023 50.57 24.18 50.417L38.866 36.037C39.1698 35.7421 39.5766 35.5771 40 35.5771C40.4235 35.5771 40.8302 35.7421 41.134 36.037L55.82 50.417C55.977 50.57 56.23 50.57 56.387 50.417L71.073 36.037C71.3768 35.7421 71.7836 35.5771 72.207 35.5771C72.6305 35.5771 73.0372 35.7421 73.341 36.037Z" fill="url(#paint6_radial_642_4247)"/>
<path d="M17.6721 25.954C30.0021 13.882 49.9981 13.882 62.3281 25.954L63.835 27.43C63.9361 27.5277 64.0165 27.6447 64.0714 27.774C64.1263 27.9034 64.1546 28.0425 64.1546 28.183C64.1546 28.3236 64.1263 28.4627 64.0714 28.592C64.0165 28.7214 63.9361 28.8384 63.835 28.936L58.6791 33.984C58.6206 34.0399 58.5429 34.0711 58.462 34.0711C58.3812 34.0711 58.3035 34.0399 58.2451 33.984L56.17 31.954C47.239 23.208 32.762 23.208 23.83 31.954L21.609 34.128C21.5506 34.1842 21.4726 34.2156 21.3916 34.2156C21.3105 34.2156 21.2325 34.1842 21.174 34.128L16.018 29.08C15.917 28.9824 15.8366 28.8654 15.7817 28.736C15.7268 28.6067 15.6985 28.4676 15.6985 28.327C15.6985 28.1865 15.7268 28.0474 15.7817 27.918C15.8366 27.7887 15.917 27.6717 16.018 27.574L17.6721 25.954V25.954ZM72.9921 36.394L77.58 40.888C77.6811 40.9857 77.7615 41.1027 77.8164 41.232C77.8713 41.3614 77.8996 41.5005 77.8996 41.641C77.8996 41.7816 77.8713 41.9207 77.8164 42.05C77.7615 42.1794 77.6811 42.2964 77.58 42.394L56.8881 62.654C56.6777 62.8574 56.3966 62.971 56.104 62.971C55.8115 62.971 55.5304 62.8574 55.32 62.654L40.633 48.274C40.4637 48.109 40.2365 48.0166 40 48.0166C39.7636 48.0166 39.5364 48.109 39.3671 48.274L24.68 62.655C24.4697 62.8584 24.1886 62.972 23.896 62.972C23.6035 62.972 23.3224 62.8584 23.112 62.655L2.41805 42.395C2.31698 42.2974 2.2366 42.1804 2.1817 42.051C2.1268 41.9217 2.09851 41.7826 2.09851 41.642C2.09851 41.5015 2.1268 41.3624 2.1817 41.233C2.2366 41.1037 2.31698 40.9867 2.41805 40.889L7.00805 36.396C7.21839 36.1927 7.4995 36.079 7.79205 36.079C8.0846 36.079 8.36571 36.1927 8.57605 36.396L23.262 50.775C23.4315 50.9404 23.6588 51.0329 23.8955 51.0329C24.1323 51.0329 24.3596 50.9404 24.529 50.775L24.1791 50.418L24.529 50.775L39.215 36.395C39.4254 36.1917 39.7065 36.078 39.9991 36.078C40.2916 36.078 40.5727 36.1917 40.7831 36.395L55.4691 50.775C55.6385 50.9404 55.8658 51.0329 56.1026 51.0329C56.3393 51.0329 56.5666 50.9404 56.736 50.775L71.422 36.395C71.6324 36.1917 71.9135 36.078 72.2061 36.078C72.4986 36.078 72.7797 36.1917 72.9901 36.395L72.9921 36.394Z" stroke="white" stroke-opacity="0.1"/>
<defs>
<radialGradient id="paint0_radial_642_4247" cx="0" cy="0" r="1" gradientUnits="userSpaceOnUse" gradientTransform="translate(56.4995 63.0001) rotate(-127.117) scale(23.2002 37.853)">
<stop stop-color="#70D75B"/>
<stop offset="0.477" stop-color="#7CD94E"/>
<stop offset="1" stop-color="#7CD94E" stop-opacity="0"/>
</radialGradient>
<radialGradient id="paint1_radial_642_4247" cx="0" cy="0" r="1" gradientUnits="userSpaceOnUse" gradientTransform="translate(45 35) rotate(120.964) scale(11.6619 31.7572)">
<stop stop-color="#4567FB"/>
<stop offset="0.924" stop-color="#4567FB"/>
<stop offset="1" stop-color="#4567FB" stop-opacity="0"/>
</radialGradient>
<radialGradient id="paint2_radial_642_4247" cx="0" cy="0" r="1" gradientUnits="userSpaceOnUse" gradientTransform="translate(47.5 15) rotate(125.655) scale(28.3064 70.4549)">
<stop stop-color="#C4397E"/>
<stop offset="0.322" stop-color="#C6397F"/>
<stop offset="1" stop-color="#C6397F" stop-opacity="0"/>
</radialGradient>
<radialGradient id="paint3_radial_642_4247" cx="0" cy="0" r="1" gradientUnits="userSpaceOnUse" gradientTransform="translate(68.5 35.5) rotate(127.405) scale(21.4009 23.2471)">
<stop stop-color="#F651CC"/>
<stop offset="0.681" stop-color="#F64ECC"/>
<stop offset="1" stop-color="#F64ECC" stop-opacity="0"/>
</radialGradient>
<radialGradient id="paint4_radial_642_4247" cx="0" cy="0" r="1" gradientUnits="userSpaceOnUse" gradientTransform="translate(62.0009 22.5007) rotate(135) scale(13.435 14.9028)">
<stop stop-color="#C251FB"/>
<stop offset="0.873" stop-color="#C251FB"/>
<stop offset="1" stop-color="#C251FB" stop-opacity="0"/>
</radialGradient>
<radialGradient id="paint5_radial_642_4247" cx="0" cy="0" r="1" gradientUnits="userSpaceOnUse" gradientTransform="translate(0.500038 39) rotate(25.1448) scale(27.0647 44.1583)">
<stop stop-color="#8551EC"/>
<stop offset="0.72" stop-color="#8551EC"/>
<stop offset="1" stop-color="#8551EC" stop-opacity="0"/>
</radialGradient>
<radialGradient id="paint6_radial_642_4247" cx="0" cy="0" r="1" gradientUnits="userSpaceOnUse" gradientTransform="translate(18.5 24) rotate(46.6366) scale(12.3794 20.198)">
<stop stop-color="#10937D"/>
<stop offset="0.48" stop-color="#10937D"/>
<stop offset="1" stop-color="#10937D" stop-opacity="0"/>
</radialGradient>
</defs>
</svg>
