<svg width="1200" height="630" viewBox="0 0 1200 630" fill="none" xmlns="http://www.w3.org/2000/svg">
<path d="M1200 0H0V630H1200V0Z" fill="white"/>
<path d="M1200 611.686H0V629.686H1200V611.686Z" fill="#41B883"/>
<path d="M93.108 349.838V348.517C94.294 348.517 95.1214 348.268 95.5902 347.771C96.0661 347.274 96.304 346.443 96.304 345.278V341.869C96.304 340.889 96.3963 340.04 96.581 339.323C96.7727 338.606 97.0817 338.013 97.5078 337.544C97.9339 337.075 98.5021 336.727 99.2124 336.5C99.9226 336.273 100.8 336.159 101.844 336.159V338.247C101.02 338.247 100.37 338.375 99.8942 338.631C99.4254 338.886 99.0916 339.284 98.8928 339.824C98.701 340.357 98.6051 341.038 98.6051 341.869V346.131C98.6051 346.685 98.5305 347.189 98.3814 347.643C98.2393 348.098 97.973 348.489 97.5824 348.815C97.1918 349.142 96.6342 349.394 95.9098 349.572C95.1925 349.749 94.2585 349.838 93.108 349.838ZM101.844 363.432C100.8 363.432 99.9226 363.318 99.2124 363.091C98.5021 362.864 97.9339 362.516 97.5078 362.047C97.0817 361.578 96.7727 360.985 96.581 360.268C96.3963 359.55 96.304 358.702 96.304 357.722V354.312C96.304 353.148 96.0661 352.317 95.5902 351.82C95.1214 351.322 94.294 351.074 93.108 351.074V349.753C94.2585 349.753 95.1925 349.842 95.9098 350.019C96.6342 350.197 97.1918 350.449 97.5824 350.776C97.973 351.102 98.2393 351.493 98.3814 351.947C98.5305 352.402 98.6051 352.906 98.6051 353.46V357.722C98.6051 358.553 98.701 359.234 98.8928 359.767C99.0916 360.3 99.4254 360.694 99.8942 360.95C100.37 361.212 101.02 361.344 101.844 361.344V363.432ZM93.108 351.074V348.517H95.6222V351.074H93.108ZM103.977 349.838V348.517C105.163 348.517 105.991 348.268 106.459 347.771C106.935 347.274 107.173 346.443 107.173 345.278V341.869C107.173 340.889 107.265 340.04 107.45 339.323C107.642 338.606 107.951 338.013 108.377 337.544C108.803 337.075 109.371 336.727 110.081 336.5C110.792 336.273 111.669 336.159 112.713 336.159V338.247C111.889 338.247 111.239 338.375 110.763 338.631C110.295 338.886 109.961 339.284 109.762 339.824C109.57 340.357 109.474 341.038 109.474 341.869V346.131C109.474 346.685 109.4 347.189 109.251 347.643C109.108 348.098 108.842 348.489 108.452 348.815C108.061 349.142 107.503 349.394 106.779 349.572C106.062 349.749 105.128 349.838 103.977 349.838ZM112.713 363.432C111.669 363.432 110.792 363.318 110.081 363.091C109.371 362.864 108.803 362.516 108.377 362.047C107.951 361.578 107.642 360.985 107.45 360.268C107.265 359.55 107.173 358.702 107.173 357.722V354.312C107.173 353.148 106.935 352.317 106.459 351.82C105.991 351.322 105.163 351.074 103.977 351.074V349.753C105.128 349.753 106.062 349.842 106.779 350.019C107.503 350.197 108.061 350.449 108.452 350.776C108.842 351.102 109.108 351.493 109.251 351.947C109.4 352.402 109.474 352.906 109.474 353.46V357.722C109.474 358.553 109.57 359.234 109.762 359.767C109.961 360.3 110.295 360.694 110.763 360.95C111.239 361.212 111.889 361.344 112.713 361.344V363.432ZM103.977 351.074V348.517H106.491V351.074H103.977ZM118.554 337.182V359H116.039V337.182H118.554ZM123.159 359V342.636H125.673V359H123.159ZM124.437 339.909C123.947 339.909 123.524 339.742 123.169 339.408C122.821 339.075 122.647 338.673 122.647 338.205C122.647 337.736 122.821 337.335 123.169 337.001C123.524 336.667 123.947 336.5 124.437 336.5C124.927 336.5 125.346 336.667 125.694 337.001C126.049 337.335 126.227 337.736 126.227 338.205C126.227 338.673 126.049 339.075 125.694 339.408C125.346 339.742 124.927 339.909 124.437 339.909ZM132.792 349.156V359H130.278V342.636H132.707V345.193H132.92C133.303 344.362 133.886 343.695 134.667 343.19C135.448 342.679 136.457 342.423 137.692 342.423C138.8 342.423 139.77 342.651 140.601 343.105C141.432 343.553 142.078 344.234 142.54 345.151C143.001 346.06 143.232 347.21 143.232 348.602V359H140.718V348.773C140.718 347.487 140.384 346.486 139.717 345.768C139.049 345.044 138.133 344.682 136.968 344.682C136.165 344.682 135.448 344.856 134.816 345.204C134.191 345.552 133.697 346.06 133.335 346.727C132.973 347.395 132.792 348.205 132.792 349.156ZM154.687 359.341C153.111 359.341 151.751 358.993 150.607 358.297C149.471 357.594 148.594 356.614 147.976 355.357C147.365 354.092 147.059 352.622 147.059 350.946C147.059 349.27 147.365 347.793 147.976 346.514C148.594 345.229 149.453 344.227 150.554 343.51C151.662 342.786 152.954 342.423 154.432 342.423C155.284 342.423 156.126 342.565 156.956 342.849C157.787 343.134 158.544 343.595 159.226 344.234C159.907 344.866 160.451 345.705 160.856 346.749C161.26 347.793 161.463 349.078 161.463 350.605V351.67H148.849V349.497H158.906C158.906 348.574 158.721 347.75 158.352 347.026C157.99 346.301 157.471 345.729 156.797 345.31C156.129 344.891 155.341 344.682 154.432 344.682C153.43 344.682 152.564 344.93 151.832 345.428C151.108 345.918 150.55 346.557 150.16 347.345C149.769 348.134 149.574 348.979 149.574 349.881V351.33C149.574 352.565 149.787 353.613 150.213 354.472C150.646 355.325 151.246 355.974 152.013 356.422C152.78 356.862 153.672 357.082 154.687 357.082C155.348 357.082 155.944 356.99 156.477 356.805C157.017 356.614 157.482 356.33 157.873 355.953C158.263 355.57 158.565 355.094 158.778 354.526L161.207 355.207C160.952 356.031 160.522 356.756 159.918 357.381C159.314 357.999 158.569 358.482 157.681 358.83C156.793 359.17 155.795 359.341 154.687 359.341ZM172.915 337.182V359H170.273V339.952H170.145L164.819 343.489V340.804L170.273 337.182H172.915ZM186.69 348.048V349.369C185.504 349.369 184.673 349.618 184.197 350.115C183.729 350.612 183.494 351.443 183.494 352.608V356.017C183.494 356.997 183.398 357.846 183.206 358.563C183.022 359.281 182.716 359.874 182.29 360.342C181.864 360.811 181.296 361.159 180.586 361.386C179.876 361.614 178.998 361.727 177.954 361.727V359.639C178.778 359.639 179.425 359.508 179.893 359.245C180.369 358.989 180.703 358.595 180.895 358.062C181.094 357.53 181.193 356.848 181.193 356.017V351.756C181.193 351.202 181.264 350.697 181.406 350.243C181.555 349.788 181.825 349.398 182.216 349.071C182.606 348.744 183.16 348.492 183.878 348.315C184.602 348.137 185.54 348.048 186.69 348.048ZM177.954 334.455C178.998 334.455 179.876 334.568 180.586 334.795C181.296 335.023 181.864 335.371 182.29 335.839C182.716 336.308 183.022 336.901 183.206 337.619C183.398 338.336 183.494 339.185 183.494 340.165V343.574C183.494 344.739 183.729 345.57 184.197 346.067C184.673 346.564 185.504 346.812 186.69 346.812V348.134C185.54 348.134 184.602 348.045 183.878 347.867C183.16 347.69 182.606 347.437 182.216 347.111C181.825 346.784 181.555 346.393 181.406 345.939C181.264 345.484 181.193 344.98 181.193 344.426V340.165C181.193 339.334 181.094 338.652 180.895 338.119C180.703 337.58 180.369 337.182 179.893 336.926C179.425 336.67 178.778 336.543 177.954 336.543V334.455ZM186.69 346.812V349.369H184.176V346.812H186.69ZM197.559 348.048V349.369C196.373 349.369 195.542 349.618 195.066 350.115C194.598 350.612 194.363 351.443 194.363 352.608V356.017C194.363 356.997 194.267 357.846 194.076 358.563C193.891 359.281 193.586 359.874 193.159 360.342C192.733 360.811 192.165 361.159 191.455 361.386C190.745 361.614 189.868 361.727 188.824 361.727V359.639C189.647 359.639 190.294 359.508 190.762 359.245C191.238 358.989 191.572 358.595 191.764 358.062C191.963 357.53 192.062 356.848 192.062 356.017V351.756C192.062 351.202 192.133 350.697 192.275 350.243C192.424 349.788 192.694 349.398 193.085 349.071C193.475 348.744 194.029 348.492 194.747 348.315C195.471 348.137 196.409 348.048 197.559 348.048ZM188.824 334.455C189.868 334.455 190.745 334.568 191.455 334.795C192.165 335.023 192.733 335.371 193.159 335.839C193.586 336.308 193.891 336.901 194.076 337.619C194.267 338.336 194.363 339.185 194.363 340.165V343.574C194.363 344.739 194.598 345.57 195.066 346.067C195.542 346.564 196.373 346.812 197.559 346.812V348.134C196.409 348.134 195.471 348.045 194.747 347.867C194.029 347.69 193.475 347.437 193.085 347.111C192.694 346.784 192.424 346.393 192.275 345.939C192.133 345.484 192.062 344.98 192.062 344.426V340.165C192.062 339.334 191.963 338.652 191.764 338.119C191.572 337.58 191.238 337.182 190.762 336.926C190.294 336.67 189.647 336.543 188.824 336.543V334.455ZM197.559 346.812V349.369H195.045V346.812H197.559Z" fill="#35495E" fill-opacity="0.7"/>
<path d="M93.108 404.838V403.517C94.294 403.517 95.1214 403.268 95.5902 402.771C96.0661 402.274 96.304 401.443 96.304 400.278V396.869C96.304 395.889 96.3963 395.04 96.581 394.323C96.7727 393.606 97.0817 393.013 97.5078 392.544C97.9339 392.075 98.5021 391.727 99.2124 391.5C99.9226 391.273 100.8 391.159 101.844 391.159V393.247C101.02 393.247 100.37 393.375 99.8942 393.631C99.4254 393.886 99.0916 394.284 98.8928 394.824C98.701 395.357 98.6051 396.038 98.6051 396.869V401.131C98.6051 401.685 98.5305 402.189 98.3814 402.643C98.2393 403.098 97.973 403.489 97.5824 403.815C97.1918 404.142 96.6342 404.394 95.9098 404.572C95.1925 404.749 94.2585 404.838 93.108 404.838ZM101.844 418.432C100.8 418.432 99.9226 418.318 99.2124 418.091C98.5021 417.864 97.9339 417.516 97.5078 417.047C97.0817 416.578 96.7727 415.985 96.581 415.268C96.3963 414.55 96.304 413.702 96.304 412.722V409.312C96.304 408.148 96.0661 407.317 95.5902 406.82C95.1214 406.322 94.294 406.074 93.108 406.074V404.753C94.2585 404.753 95.1925 404.842 95.9098 405.019C96.6342 405.197 97.1918 405.449 97.5824 405.776C97.973 406.102 98.2393 406.493 98.3814 406.947C98.5305 407.402 98.6051 407.906 98.6051 408.46V412.722C98.6051 413.553 98.701 414.234 98.8928 414.767C99.0916 415.3 99.4254 415.694 99.8942 415.95C100.37 416.212 101.02 416.344 101.844 416.344V418.432ZM93.108 406.074V403.517H95.6222V406.074H93.108ZM103.977 404.838V403.517C105.163 403.517 105.991 403.268 106.459 402.771C106.935 402.274 107.173 401.443 107.173 400.278V396.869C107.173 395.889 107.265 395.04 107.45 394.323C107.642 393.606 107.951 393.013 108.377 392.544C108.803 392.075 109.371 391.727 110.081 391.5C110.792 391.273 111.669 391.159 112.713 391.159V393.247C111.889 393.247 111.239 393.375 110.763 393.631C110.295 393.886 109.961 394.284 109.762 394.824C109.57 395.357 109.474 396.038 109.474 396.869V401.131C109.474 401.685 109.4 402.189 109.251 402.643C109.108 403.098 108.842 403.489 108.452 403.815C108.061 404.142 107.503 404.394 106.779 404.572C106.062 404.749 105.128 404.838 103.977 404.838ZM112.713 418.432C111.669 418.432 110.792 418.318 110.081 418.091C109.371 417.864 108.803 417.516 108.377 417.047C107.951 416.578 107.642 415.985 107.45 415.268C107.265 414.55 107.173 413.702 107.173 412.722V409.312C107.173 408.148 106.935 407.317 106.459 406.82C105.991 406.322 105.163 406.074 103.977 406.074V404.753C105.128 404.753 106.062 404.842 106.779 405.019C107.503 405.197 108.061 405.449 108.452 405.776C108.842 406.102 109.108 406.493 109.251 406.947C109.4 407.402 109.474 407.906 109.474 408.46V412.722C109.474 413.553 109.57 414.234 109.762 414.767C109.961 415.3 110.295 415.694 110.763 415.95C111.239 416.212 111.889 416.344 112.713 416.344V418.432ZM103.977 406.074V403.517H106.491V406.074H103.977ZM118.554 392.182V414H116.039V392.182H118.554ZM123.159 414V397.636H125.673V414H123.159ZM124.437 394.909C123.947 394.909 123.524 394.742 123.169 394.408C122.821 394.075 122.647 393.673 122.647 393.205C122.647 392.736 122.821 392.335 123.169 392.001C123.524 391.667 123.947 391.5 124.437 391.5C124.927 391.5 125.346 391.667 125.694 392.001C126.049 392.335 126.227 392.736 126.227 393.205C126.227 393.673 126.049 394.075 125.694 394.408C125.346 394.742 124.927 394.909 124.437 394.909ZM132.792 404.156V414H130.278V397.636H132.707V400.193H132.92C133.303 399.362 133.886 398.695 134.667 398.19C135.448 397.679 136.457 397.423 137.692 397.423C138.8 397.423 139.77 397.651 140.601 398.105C141.432 398.553 142.078 399.234 142.54 400.151C143.001 401.06 143.232 402.21 143.232 403.602V414H140.718V403.773C140.718 402.487 140.384 401.486 139.717 400.768C139.049 400.044 138.133 399.682 136.968 399.682C136.165 399.682 135.448 399.856 134.816 400.204C134.191 400.552 133.697 401.06 133.335 401.727C132.973 402.395 132.792 403.205 132.792 404.156ZM154.687 414.341C153.111 414.341 151.751 413.993 150.607 413.297C149.471 412.594 148.594 411.614 147.976 410.357C147.365 409.092 147.059 407.622 147.059 405.946C147.059 404.27 147.365 402.793 147.976 401.514C148.594 400.229 149.453 399.227 150.554 398.51C151.662 397.786 152.954 397.423 154.432 397.423C155.284 397.423 156.126 397.565 156.956 397.849C157.787 398.134 158.544 398.595 159.226 399.234C159.907 399.866 160.451 400.705 160.856 401.749C161.26 402.793 161.463 404.078 161.463 405.605V406.67H148.849V404.497H158.906C158.906 403.574 158.721 402.75 158.352 402.026C157.99 401.301 157.471 400.729 156.797 400.31C156.129 399.891 155.341 399.682 154.432 399.682C153.43 399.682 152.564 399.93 151.832 400.428C151.108 400.918 150.55 401.557 150.16 402.345C149.769 403.134 149.574 403.979 149.574 404.881V406.33C149.574 407.565 149.787 408.613 150.213 409.472C150.646 410.325 151.246 410.974 152.013 411.422C152.78 411.862 153.672 412.082 154.687 412.082C155.348 412.082 155.944 411.99 156.477 411.805C157.017 411.614 157.482 411.33 157.873 410.953C158.263 410.57 158.565 410.094 158.778 409.526L161.207 410.207C160.952 411.031 160.522 411.756 159.918 412.381C159.314 412.999 158.569 413.482 157.681 413.83C156.793 414.17 155.795 414.341 154.687 414.341ZM165.245 414V412.082L172.447 404.199C173.292 403.276 173.988 402.473 174.535 401.791C175.081 401.102 175.486 400.456 175.749 399.852C176.019 399.241 176.154 398.602 176.154 397.935C176.154 397.168 175.969 396.504 175.6 395.942C175.238 395.381 174.741 394.948 174.108 394.643C173.476 394.337 172.766 394.185 171.978 394.185C171.14 394.185 170.408 394.359 169.783 394.707C169.165 395.048 168.686 395.527 168.345 396.145C168.011 396.763 167.844 397.487 167.844 398.318H165.33C165.33 397.04 165.625 395.918 166.214 394.952C166.804 393.986 167.606 393.233 168.622 392.693C169.645 392.153 170.792 391.884 172.063 391.884C173.341 391.884 174.474 392.153 175.461 392.693C176.449 393.233 177.223 393.961 177.784 394.877C178.345 395.793 178.626 396.812 178.626 397.935C178.626 398.737 178.48 399.522 178.189 400.289C177.905 401.049 177.407 401.898 176.697 402.835C175.994 403.766 175.018 404.902 173.768 406.244L168.867 411.486V411.656H179.009V414H165.245ZM190.909 403.048V404.369C189.723 404.369 188.892 404.618 188.416 405.115C187.947 405.612 187.713 406.443 187.713 407.608V411.017C187.713 411.997 187.617 412.846 187.425 413.563C187.241 414.281 186.935 414.874 186.509 415.342C186.083 415.811 185.515 416.159 184.805 416.386C184.094 416.614 183.217 416.727 182.173 416.727V414.639C182.997 414.639 183.643 414.508 184.112 414.245C184.588 413.989 184.922 413.595 185.113 413.062C185.312 412.53 185.412 411.848 185.412 411.017V406.756C185.412 406.202 185.483 405.697 185.625 405.243C185.774 404.788 186.044 404.398 186.434 404.071C186.825 403.744 187.379 403.492 188.096 403.315C188.821 403.137 189.758 403.048 190.909 403.048ZM182.173 389.455C183.217 389.455 184.094 389.568 184.805 389.795C185.515 390.023 186.083 390.371 186.509 390.839C186.935 391.308 187.241 391.901 187.425 392.619C187.617 393.336 187.713 394.185 187.713 395.165V398.574C187.713 399.739 187.947 400.57 188.416 401.067C188.892 401.564 189.723 401.812 190.909 401.812V403.134C189.758 403.134 188.821 403.045 188.096 402.867C187.379 402.69 186.825 402.437 186.434 402.111C186.044 401.784 185.774 401.393 185.625 400.939C185.483 400.484 185.412 399.98 185.412 399.426V395.165C185.412 394.334 185.312 393.652 185.113 393.119C184.922 392.58 184.588 392.182 184.112 391.926C183.643 391.67 182.997 391.543 182.173 391.543V389.455ZM190.909 401.812V404.369H188.395V401.812H190.909ZM201.778 403.048V404.369C200.592 404.369 199.761 404.618 199.285 405.115C198.816 405.612 198.582 406.443 198.582 407.608V411.017C198.582 411.997 198.486 412.846 198.294 413.563C198.11 414.281 197.804 414.874 197.378 415.342C196.952 415.811 196.384 416.159 195.674 416.386C194.963 416.614 194.086 416.727 193.042 416.727V414.639C193.866 414.639 194.512 414.508 194.981 414.245C195.457 413.989 195.791 413.595 195.983 413.062C196.181 412.53 196.281 411.848 196.281 411.017V406.756C196.281 406.202 196.352 405.697 196.494 405.243C196.643 404.788 196.913 404.398 197.304 404.071C197.694 403.744 198.248 403.492 198.966 403.315C199.69 403.137 200.627 403.048 201.778 403.048ZM193.042 389.455C194.086 389.455 194.963 389.568 195.674 389.795C196.384 390.023 196.952 390.371 197.378 390.839C197.804 391.308 198.11 391.901 198.294 392.619C198.486 393.336 198.582 394.185 198.582 395.165V398.574C198.582 399.739 198.816 400.57 199.285 401.067C199.761 401.564 200.592 401.812 201.778 401.812V403.134C200.627 403.134 199.69 403.045 198.966 402.867C198.248 402.69 197.694 402.437 197.304 402.111C196.913 401.784 196.643 401.393 196.494 400.939C196.352 400.484 196.281 399.98 196.281 399.426V395.165C196.281 394.334 196.181 393.652 195.983 393.119C195.791 392.58 195.457 392.182 194.981 391.926C194.512 391.67 193.866 391.543 193.042 391.543V389.455ZM201.778 401.812V404.369H199.264V401.812H201.778Z" fill="#35495E" fill-opacity="0.7"/>
<path d="M93.108 459.838V458.517C94.294 458.517 95.1214 458.268 95.5902 457.771C96.0661 457.274 96.304 456.443 96.304 455.278V451.869C96.304 450.889 96.3963 450.04 96.581 449.323C96.7727 448.606 97.0817 448.013 97.5078 447.544C97.9339 447.075 98.5021 446.727 99.2124 446.5C99.9226 446.273 100.8 446.159 101.844 446.159V448.247C101.02 448.247 100.37 448.375 99.8942 448.631C99.4254 448.886 99.0916 449.284 98.8928 449.824C98.701 450.357 98.6051 451.038 98.6051 451.869V456.131C98.6051 456.685 98.5305 457.189 98.3814 457.643C98.2393 458.098 97.973 458.489 97.5824 458.815C97.1918 459.142 96.6342 459.394 95.9098 459.572C95.1925 459.749 94.2585 459.838 93.108 459.838ZM101.844 473.432C100.8 473.432 99.9226 473.318 99.2124 473.091C98.5021 472.864 97.9339 472.516 97.5078 472.047C97.0817 471.578 96.7727 470.985 96.581 470.268C96.3963 469.55 96.304 468.702 96.304 467.722V464.312C96.304 463.148 96.0661 462.317 95.5902 461.82C95.1214 461.322 94.294 461.074 93.108 461.074V459.753C94.2585 459.753 95.1925 459.842 95.9098 460.019C96.6342 460.197 97.1918 460.449 97.5824 460.776C97.973 461.102 98.2393 461.493 98.3814 461.947C98.5305 462.402 98.6051 462.906 98.6051 463.46V467.722C98.6051 468.553 98.701 469.234 98.8928 469.767C99.0916 470.3 99.4254 470.694 99.8942 470.95C100.37 471.212 101.02 471.344 101.844 471.344V473.432ZM93.108 461.074V458.517H95.6222V461.074H93.108ZM103.977 459.838V458.517C105.163 458.517 105.991 458.268 106.459 457.771C106.935 457.274 107.173 456.443 107.173 455.278V451.869C107.173 450.889 107.265 450.04 107.45 449.323C107.642 448.606 107.951 448.013 108.377 447.544C108.803 447.075 109.371 446.727 110.081 446.5C110.792 446.273 111.669 446.159 112.713 446.159V448.247C111.889 448.247 111.239 448.375 110.763 448.631C110.295 448.886 109.961 449.284 109.762 449.824C109.57 450.357 109.474 451.038 109.474 451.869V456.131C109.474 456.685 109.4 457.189 109.251 457.643C109.108 458.098 108.842 458.489 108.452 458.815C108.061 459.142 107.503 459.394 106.779 459.572C106.062 459.749 105.128 459.838 103.977 459.838ZM112.713 473.432C111.669 473.432 110.792 473.318 110.081 473.091C109.371 472.864 108.803 472.516 108.377 472.047C107.951 471.578 107.642 470.985 107.45 470.268C107.265 469.55 107.173 468.702 107.173 467.722V464.312C107.173 463.148 106.935 462.317 106.459 461.82C105.991 461.322 105.163 461.074 103.977 461.074V459.753C105.128 459.753 106.062 459.842 106.779 460.019C107.503 460.197 108.061 460.449 108.452 460.776C108.842 461.102 109.108 461.493 109.251 461.947C109.4 462.402 109.474 462.906 109.474 463.46V467.722C109.474 468.553 109.57 469.234 109.762 469.767C109.961 470.3 110.295 470.694 110.763 470.95C111.239 471.212 111.889 471.344 112.713 471.344V473.432ZM103.977 461.074V458.517H106.491V461.074H103.977ZM118.554 447.182V469H116.039V447.182H118.554ZM123.159 469V452.636H125.673V469H123.159ZM124.437 449.909C123.947 449.909 123.524 449.742 123.169 449.408C122.821 449.075 122.647 448.673 122.647 448.205C122.647 447.736 122.821 447.335 123.169 447.001C123.524 446.667 123.947 446.5 124.437 446.5C124.927 446.5 125.346 446.667 125.694 447.001C126.049 447.335 126.227 447.736 126.227 448.205C126.227 448.673 126.049 449.075 125.694 449.408C125.346 449.742 124.927 449.909 124.437 449.909ZM132.792 459.156V469H130.278V452.636H132.707V455.193H132.92C133.303 454.362 133.886 453.695 134.667 453.19C135.448 452.679 136.457 452.423 137.692 452.423C138.8 452.423 139.77 452.651 140.601 453.105C141.432 453.553 142.078 454.234 142.54 455.151C143.001 456.06 143.232 457.21 143.232 458.602V469H140.718V458.773C140.718 457.487 140.384 456.486 139.717 455.768C139.049 455.044 138.133 454.682 136.968 454.682C136.165 454.682 135.448 454.856 134.816 455.204C134.191 455.552 133.697 456.06 133.335 456.727C132.973 457.395 132.792 458.205 132.792 459.156ZM154.687 469.341C153.111 469.341 151.751 468.993 150.607 468.297C149.471 467.594 148.594 466.614 147.976 465.357C147.365 464.092 147.059 462.622 147.059 460.946C147.059 459.27 147.365 457.793 147.976 456.514C148.594 455.229 149.453 454.227 150.554 453.51C151.662 452.786 152.954 452.423 154.432 452.423C155.284 452.423 156.126 452.565 156.956 452.849C157.787 453.134 158.544 453.595 159.226 454.234C159.907 454.866 160.451 455.705 160.856 456.749C161.26 457.793 161.463 459.078 161.463 460.605V461.67H148.849V459.497H158.906C158.906 458.574 158.721 457.75 158.352 457.026C157.99 456.301 157.471 455.729 156.797 455.31C156.129 454.891 155.341 454.682 154.432 454.682C153.43 454.682 152.564 454.93 151.832 455.428C151.108 455.918 150.55 456.557 150.16 457.345C149.769 458.134 149.574 458.979 149.574 459.881V461.33C149.574 462.565 149.787 463.613 150.213 464.472C150.646 465.325 151.246 465.974 152.013 466.422C152.78 466.862 153.672 467.082 154.687 467.082C155.348 467.082 155.944 466.99 156.477 466.805C157.017 466.614 157.482 466.33 157.873 465.953C158.263 465.57 158.565 465.094 158.778 464.526L161.207 465.207C160.952 466.031 160.522 466.756 159.918 467.381C159.314 467.999 158.569 468.482 157.681 468.83C156.793 469.17 155.795 469.341 154.687 469.341ZM172.617 469.298C171.211 469.298 169.957 469.057 168.856 468.574C167.763 468.091 166.893 467.42 166.246 466.56C165.607 465.694 165.259 464.689 165.202 463.545H167.887C167.944 464.249 168.185 464.856 168.611 465.367C169.037 465.871 169.595 466.262 170.284 466.539C170.973 466.816 171.736 466.955 172.574 466.955C173.512 466.955 174.343 466.791 175.067 466.464C175.792 466.138 176.36 465.683 176.772 465.101C177.184 464.518 177.39 463.844 177.39 463.077C177.39 462.274 177.191 461.567 176.793 460.957C176.395 460.339 175.813 459.856 175.046 459.508C174.279 459.16 173.341 458.986 172.233 458.986H170.486V456.642H172.233C173.1 456.642 173.86 456.486 174.513 456.173C175.174 455.861 175.689 455.42 176.058 454.852C176.434 454.284 176.623 453.616 176.623 452.849C176.623 452.111 176.459 451.468 176.133 450.921C175.806 450.374 175.344 449.948 174.748 449.643C174.158 449.337 173.462 449.185 172.66 449.185C171.907 449.185 171.197 449.323 170.529 449.6C169.868 449.87 169.329 450.264 168.91 450.783C168.491 451.294 168.263 451.912 168.228 452.636H165.671C165.714 451.493 166.058 450.491 166.704 449.632C167.351 448.766 168.196 448.091 169.24 447.608C170.291 447.125 171.445 446.884 172.702 446.884C174.052 446.884 175.209 447.157 176.175 447.704C177.141 448.244 177.883 448.957 178.402 449.845C178.92 450.733 179.18 451.692 179.18 452.722C179.18 453.95 178.856 454.998 178.21 455.864C177.571 456.731 176.701 457.331 175.6 457.665V457.835C176.978 458.062 178.054 458.648 178.828 459.593C179.602 460.531 179.989 461.692 179.989 463.077C179.989 464.263 179.666 465.328 179.02 466.273C178.381 467.21 177.507 467.949 176.399 468.489C175.291 469.028 174.03 469.298 172.617 469.298ZM191.846 458.048V459.369C190.66 459.369 189.829 459.618 189.354 460.115C188.885 460.612 188.65 461.443 188.65 462.608V466.017C188.65 466.997 188.555 467.846 188.363 468.563C188.178 469.281 187.873 469.874 187.447 470.342C187.02 470.811 186.452 471.159 185.742 471.386C185.032 471.614 184.155 471.727 183.111 471.727V469.639C183.934 469.639 184.581 469.508 185.05 469.245C185.525 468.989 185.859 468.595 186.051 468.062C186.25 467.53 186.349 466.848 186.349 466.017V461.756C186.349 461.202 186.42 460.697 186.562 460.243C186.711 459.788 186.981 459.398 187.372 459.071C187.763 458.744 188.317 458.492 189.034 458.315C189.758 458.137 190.696 458.048 191.846 458.048ZM183.111 444.455C184.155 444.455 185.032 444.568 185.742 444.795C186.452 445.023 187.02 445.371 187.447 445.839C187.873 446.308 188.178 446.901 188.363 447.619C188.555 448.336 188.65 449.185 188.65 450.165V453.574C188.65 454.739 188.885 455.57 189.354 456.067C189.829 456.564 190.66 456.812 191.846 456.812V458.134C190.696 458.134 189.758 458.045 189.034 457.867C188.317 457.69 187.763 457.437 187.372 457.111C186.981 456.784 186.711 456.393 186.562 455.939C186.42 455.484 186.349 454.98 186.349 454.426V450.165C186.349 449.334 186.25 448.652 186.051 448.119C185.859 447.58 185.525 447.182 185.05 446.926C184.581 446.67 183.934 446.543 183.111 446.543V444.455ZM191.846 456.812V459.369H189.332V456.812H191.846ZM202.716 458.048V459.369C201.529 459.369 200.699 459.618 200.223 460.115C199.754 460.612 199.52 461.443 199.52 462.608V466.017C199.52 466.997 199.424 467.846 199.232 468.563C199.047 469.281 198.742 469.874 198.316 470.342C197.89 470.811 197.321 471.159 196.611 471.386C195.901 471.614 195.024 471.727 193.98 471.727V469.639C194.804 469.639 195.45 469.508 195.919 469.245C196.395 468.989 196.728 468.595 196.92 468.062C197.119 467.53 197.218 466.848 197.218 466.017V461.756C197.218 461.202 197.289 460.697 197.431 460.243C197.581 459.788 197.85 459.398 198.241 459.071C198.632 458.744 199.186 458.492 199.903 458.315C200.627 458.137 201.565 458.048 202.716 458.048ZM193.98 444.455C195.024 444.455 195.901 444.568 196.611 444.795C197.321 445.023 197.89 445.371 198.316 445.839C198.742 446.308 199.047 446.901 199.232 447.619C199.424 448.336 199.52 449.185 199.52 450.165V453.574C199.52 454.739 199.754 455.57 200.223 456.067C200.699 456.564 201.529 456.812 202.716 456.812V458.134C201.565 458.134 200.627 458.045 199.903 457.867C199.186 457.69 198.632 457.437 198.241 457.111C197.85 456.784 197.581 456.393 197.431 455.939C197.289 455.484 197.218 454.98 197.218 454.426V450.165C197.218 449.334 197.119 448.652 196.92 448.119C196.728 447.58 196.395 447.182 195.919 446.926C195.45 446.67 194.804 446.543 193.98 446.543V444.455ZM202.716 456.812V459.369H200.201V456.812H202.716Z" fill="#35495E" fill-opacity="0.7"/>
<path d="M1124.53 60V126.67C1124.53 145.303 1109.4 160.407 1090.72 160.407C1072.05 160.407 1056.92 145.303 1056.92 126.67V60H1080.83V126.67C1080.83 132.122 1085.26 136.541 1090.72 136.541C1096.19 136.541 1100.61 132.122 1100.61 126.67V60H1124.53Z" fill="#35495E"/>
<path d="M1148.45 60V126.67C1148.45 158.484 1122.6 184.275 1090.72 184.275C1058.84 184.275 1033 158.484 1033 126.67V60H1056.92V126.67C1056.92 145.303 1072.05 160.407 1090.72 160.407C1109.4 160.407 1124.53 145.303 1124.53 126.67V60H1148.45Z" fill="#41B883"/>
<path d="M978.294 473.429C978.437 472.5 979.009 472 979.938 472H981.938C982.796 472 983.367 472.5 983.367 473.429C983.367 473.714 983.296 474.5 983.153 475.286L974.435 520.357C974.292 521.286 973.649 522 972.72 522H967.576C966.647 522 966.004 521.286 965.861 520.357L957.214 475.286C957.071 474.5 957 473.714 957 473.429C957 472.5 957.572 472 958.429 472H960.716C961.645 472 962.216 472.5 962.359 473.429L970.291 517.071L978.294 473.429Z" fill="#35495E"/>
<path d="M991.585 511.714V488.643C991.585 487.714 992.3 487 993.228 487H995.158C996.087 487 996.801 487.714 996.801 488.643V511.643C996.801 515.071 998.516 517.357 1001.95 517.357H1003.3C1006.73 517.357 1008.52 515.071 1008.52 511.643V488.643C1008.52 487.714 1009.23 487 1010.16 487H1012.09C1013.02 487 1013.74 487.714 1013.74 488.643V520.357C1013.74 521.286 1013.02 522 1012.09 522H1010.16C1009.23 522 1008.52 521.286 1008.52 520.357V519C1006.88 520.929 1004.38 522 1001.3 522C995.372 522 991.585 518.357 991.585 511.714Z" fill="#35495E"/>
<path d="M1030.24 505.071V511.643C1030.24 515.071 1031.96 517.357 1035.39 517.357H1037.25C1040.68 517.357 1042.39 515.071 1042.39 511.643V510.929C1042.39 510 1043.11 509.286 1044.03 509.286H1045.96C1046.89 509.286 1047.61 510 1047.61 510.929V511.5C1047.61 518.143 1043.75 522 1037.82 522H1034.82C1028.89 522 1025.03 518.143 1025.03 511.5V497.5C1025.03 490.857 1028.89 487 1034.82 487H1037.82C1043.75 487 1047.61 490.857 1047.61 497.5V503.429C1047.61 504.357 1046.89 505.071 1045.96 505.071H1030.24ZM1030.24 500.429H1042.39V497.357C1042.39 493.929 1040.68 491.643 1037.25 491.643H1035.39C1031.96 491.643 1030.24 493.929 1030.24 497.357V500.429Z" fill="#35495E"/>
<path d="M1082.33 511.5C1082.33 518.143 1077.76 522 1071.83 522H1068.97C1063.04 522 1058.47 518.143 1058.47 511.5V473.643C1058.47 472.714 1059.18 472 1060.11 472H1062.04C1062.97 472 1063.68 472.714 1063.68 473.643V511.214C1063.68 514.643 1065.4 517.214 1068.83 517.214H1071.97C1075.4 517.214 1077.12 514.643 1077.12 511.214V473.643C1077.12 472.714 1077.83 472 1078.76 472H1080.69C1081.62 472 1082.33 472.714 1082.33 473.643V511.5Z" fill="#35495E"/>
<path d="M1098.77 505.071C1094.19 503.714 1093.12 500.929 1093.12 496.786V495.286C1093.12 490.286 1096.7 487 1101.7 487H1106.91C1112.13 487 1115.42 489.857 1115.42 495.286V497.357C1115.42 498.286 1114.7 499 1113.77 499H1111.84C1110.99 499 1110.2 498.286 1110.2 497.214V495.071C1110.2 492.714 1108.56 491.786 1107.06 491.786H1101.48C1099.48 491.786 1098.34 493.357 1098.34 495.357V497.214C1098.34 498.286 1098.91 499.786 1100.48 500.286L1110.27 503.429C1113.63 504.5 1115.63 506.714 1115.63 511.429V513.643C1115.63 518.214 1112.56 522 1107.06 522H1101.13C1095.91 522 1093.05 519.286 1093.05 514.071V511.214C1093.05 510.286 1093.77 509.571 1094.69 509.571H1096.62C1097.48 509.571 1098.27 510.286 1098.27 511.214V513.5C1098.27 516.286 1099.48 517.214 1101.55 517.214H1106.63C1108.7 517.214 1110.41 516.286 1110.41 513.5V512.429C1110.41 509.143 1109.49 508.286 1106.77 507.5L1098.77 505.071Z" fill="#35495E"/>
<path d="M1130.99 505.071V511.643C1130.99 515.071 1132.71 517.357 1136.14 517.357H1138C1141.43 517.357 1143.14 515.071 1143.14 511.643V510.929C1143.14 510 1143.86 509.286 1144.79 509.286H1146.71C1147.64 509.286 1148.36 510 1148.36 510.929V511.5C1148.36 518.143 1144.5 522 1138.57 522H1135.57C1129.64 522 1125.78 518.143 1125.78 511.5V497.5C1125.78 490.857 1129.64 487 1135.57 487H1138.57C1144.5 487 1148.36 490.857 1148.36 497.5V503.429C1148.36 504.357 1147.64 505.071 1146.71 505.071H1130.99ZM1130.99 500.429H1143.14V497.357C1143.14 493.929 1141.43 491.643 1138 491.643H1136.14C1132.71 491.643 1130.99 493.929 1130.99 497.357V500.429Z" fill="#35495E"/>
<path d="M713.045 546.506H710.653C710.511 545.818 710.264 545.213 709.91 544.692C709.563 544.172 709.138 543.734 708.637 543.381C708.142 543.02 707.592 542.75 706.987 542.57C706.383 542.39 705.753 542.3 705.097 542.3C703.901 542.3 702.817 542.602 701.846 543.207C700.881 543.811 700.113 544.702 699.54 545.879C698.974 547.056 698.692 548.5 698.692 550.21C698.692 551.921 698.974 553.364 699.54 554.541C700.113 555.718 700.881 556.609 701.846 557.213C702.817 557.818 703.901 558.12 705.097 558.12C705.753 558.12 706.383 558.03 706.987 557.85C707.592 557.67 708.142 557.403 708.637 557.049C709.138 556.689 709.563 556.249 709.91 555.728C710.264 555.2 710.511 554.596 710.653 553.914H713.045C712.865 554.924 712.537 555.827 712.061 556.625C711.585 557.422 710.994 558.101 710.286 558.66C709.579 559.213 708.785 559.635 707.904 559.924C707.029 560.213 706.093 560.358 705.097 560.358C703.412 560.358 701.913 559.946 700.602 559.123C699.29 558.3 698.257 557.13 697.505 555.612C696.753 554.094 696.376 552.294 696.376 550.21C696.376 548.127 696.753 546.326 697.505 544.808C698.257 543.291 699.29 542.12 700.602 541.297C701.913 540.474 703.412 540.062 705.097 540.062C706.093 540.062 707.029 540.207 707.904 540.496C708.785 540.786 709.579 541.21 710.286 541.77C710.994 542.323 711.585 542.998 712.061 543.795C712.537 544.586 712.865 545.49 713.045 546.506ZM722.622 560.397C721.284 560.397 720.11 560.078 719.101 559.442C718.097 558.805 717.313 557.914 716.747 556.77C716.187 555.625 715.908 554.287 715.908 552.757C715.908 551.213 716.187 549.866 716.747 548.715C717.313 547.564 718.097 546.67 719.101 546.033C720.11 545.397 721.284 545.078 722.622 545.078C723.959 545.078 725.13 545.397 726.133 546.033C727.142 546.67 727.927 547.564 728.486 548.715C729.052 549.866 729.335 551.213 729.335 552.757C729.335 554.287 729.052 555.625 728.486 556.77C727.927 557.914 727.142 558.805 726.133 559.442C725.13 560.078 723.959 560.397 722.622 560.397ZM722.622 558.352C723.638 558.352 724.474 558.091 725.13 557.57C725.786 557.049 726.271 556.364 726.586 555.516C726.901 554.667 727.059 553.747 727.059 552.757C727.059 551.766 726.901 550.844 726.586 549.988C726.271 549.133 725.786 548.442 725.13 547.914C724.474 547.387 723.638 547.123 722.622 547.123C721.605 547.123 720.769 547.387 720.113 547.914C719.458 548.442 718.972 549.133 718.657 549.988C718.342 550.844 718.184 551.766 718.184 552.757C718.184 553.747 718.342 554.667 718.657 555.516C718.972 556.364 719.458 557.049 720.113 557.57C720.769 558.091 721.605 558.352 722.622 558.352ZM735.087 540.332V560.088H732.81V540.332H735.087ZM741.533 540.332V560.088H739.257V540.332H741.533ZM751.915 560.397C750.487 560.397 749.256 560.081 748.22 559.451C747.191 558.815 746.397 557.927 745.838 556.789C745.285 555.644 745.008 554.313 745.008 552.795C745.008 551.278 745.285 549.94 745.838 548.782C746.397 547.618 747.175 546.712 748.172 546.062C749.175 545.406 750.346 545.078 751.683 545.078C752.455 545.078 753.217 545.207 753.969 545.464C754.722 545.721 755.407 546.139 756.024 546.718C756.642 547.291 757.133 548.049 757.5 548.995C757.867 549.94 758.05 551.104 758.05 552.487V553.451H746.629V551.483H755.735C755.735 550.647 755.568 549.901 755.233 549.245C754.905 548.59 754.436 548.072 753.825 547.692C753.22 547.313 752.506 547.123 751.683 547.123C750.777 547.123 749.992 547.348 749.33 547.799C748.674 548.242 748.169 548.821 747.815 549.535C747.461 550.249 747.285 551.014 747.285 551.831V553.143C747.285 554.262 747.478 555.21 747.863 555.988C748.256 556.76 748.799 557.348 749.494 557.753C750.188 558.152 750.995 558.352 751.915 558.352C752.513 558.352 753.053 558.268 753.535 558.101C754.024 557.927 754.445 557.67 754.799 557.329C755.153 556.982 755.426 556.551 755.619 556.036L757.818 556.654C757.587 557.4 757.198 558.056 756.651 558.622C756.105 559.181 755.429 559.618 754.625 559.934C753.822 560.242 752.918 560.397 751.915 560.397ZM767.532 560.397C766.143 560.397 764.947 560.069 763.944 559.413C762.941 558.757 762.169 557.853 761.629 556.702C761.088 555.551 760.818 554.236 760.818 552.757C760.818 551.252 761.095 549.924 761.648 548.773C762.207 547.615 762.986 546.712 763.982 546.062C764.986 545.406 766.156 545.078 767.494 545.078C768.535 545.078 769.474 545.271 770.31 545.657C771.146 546.043 771.831 546.583 772.365 547.278C772.899 547.972 773.23 548.782 773.358 549.709H771.082C770.908 549.033 770.522 548.435 769.924 547.914C769.333 547.387 768.535 547.123 767.532 547.123C766.645 547.123 765.867 547.355 765.198 547.818C764.535 548.274 764.018 548.921 763.645 549.757C763.278 550.586 763.095 551.561 763.095 552.68C763.095 553.824 763.275 554.821 763.635 555.67C764.002 556.519 764.516 557.178 765.178 557.647C765.847 558.117 766.632 558.352 767.532 558.352C768.124 558.352 768.661 558.249 769.143 558.043C769.625 557.837 770.034 557.541 770.368 557.155C770.703 556.77 770.941 556.307 771.082 555.766H773.358C773.23 556.641 772.912 557.429 772.404 558.13C771.902 558.824 771.236 559.377 770.407 559.789C769.584 560.194 768.625 560.397 767.532 560.397ZM783.13 545.271V547.2H775.452V545.271H783.13ZM777.69 541.721H779.966V555.844C779.966 556.487 780.059 556.969 780.246 557.29C780.439 557.606 780.683 557.818 780.979 557.927C781.281 558.03 781.6 558.081 781.934 558.081C782.185 558.081 782.391 558.069 782.551 558.043C782.712 558.011 782.841 557.985 782.937 557.966L783.4 560.011C783.246 560.069 783.03 560.126 782.754 560.184C782.477 560.249 782.127 560.281 781.703 560.281C781.059 560.281 780.429 560.143 779.812 559.866C779.201 559.589 778.693 559.168 778.288 558.602C777.889 558.036 777.69 557.323 777.69 556.461V541.721ZM786.555 560.088V545.271H788.831V560.088H786.555ZM787.712 542.802C787.268 542.802 786.886 542.651 786.564 542.348C786.249 542.046 786.092 541.683 786.092 541.258C786.092 540.834 786.249 540.471 786.564 540.168C786.886 539.866 787.268 539.715 787.712 539.715C788.156 539.715 788.535 539.866 788.85 540.168C789.172 540.471 789.333 540.834 789.333 541.258C789.333 541.683 789.172 542.046 788.85 542.348C788.535 542.651 788.156 542.802 787.712 542.802ZM799.02 560.397C797.682 560.397 796.509 560.078 795.499 559.442C794.496 558.805 793.711 557.914 793.145 556.77C792.586 555.625 792.306 554.287 792.306 552.757C792.306 551.213 792.586 549.866 793.145 548.715C793.711 547.564 794.496 546.67 795.499 546.033C796.509 545.397 797.682 545.078 799.02 545.078C800.358 545.078 801.528 545.397 802.531 546.033C803.541 546.67 804.325 547.564 804.885 548.715C805.451 549.866 805.734 551.213 805.734 552.757C805.734 554.287 805.451 555.625 804.885 556.77C804.325 557.914 803.541 558.805 802.531 559.442C801.528 560.078 800.358 560.397 799.02 560.397ZM799.02 558.352C800.036 558.352 800.872 558.091 801.528 557.57C802.184 557.049 802.67 556.364 802.985 555.516C803.3 554.667 803.457 553.747 803.457 552.757C803.457 551.766 803.3 550.844 802.985 549.988C802.67 549.133 802.184 548.442 801.528 547.914C800.872 547.387 800.036 547.123 799.02 547.123C798.004 547.123 797.168 547.387 796.512 547.914C795.856 548.442 795.37 549.133 795.055 549.988C794.74 550.844 794.583 551.766 794.583 552.757C794.583 553.747 794.74 554.667 795.055 555.516C795.37 556.364 795.856 557.049 796.512 557.57C797.168 558.091 798.004 558.352 799.02 558.352ZM811.485 551.175V560.088H809.209V545.271H811.408V547.586H811.601C811.948 546.834 812.476 546.229 813.183 545.773C813.891 545.31 814.804 545.078 815.923 545.078C816.926 545.078 817.804 545.284 818.556 545.696C819.309 546.101 819.894 546.718 820.312 547.548C820.73 548.371 820.939 549.413 820.939 550.673V560.088H818.662V550.827C818.662 549.663 818.36 548.757 817.755 548.107C817.151 547.451 816.321 547.123 815.267 547.123C814.54 547.123 813.891 547.281 813.318 547.596C812.752 547.911 812.305 548.371 811.977 548.975C811.649 549.58 811.485 550.313 811.485 551.175ZM838.758 560.397C837.42 560.397 836.247 560.078 835.237 559.442C834.234 558.805 833.449 557.914 832.883 556.77C832.324 555.625 832.044 554.287 832.044 552.757C832.044 551.213 832.324 549.866 832.883 548.715C833.449 547.564 834.234 546.67 835.237 546.033C836.247 545.397 837.42 545.078 838.758 545.078C840.095 545.078 841.266 545.397 842.269 546.033C843.279 546.67 844.063 547.564 844.623 548.715C845.189 549.866 845.472 551.213 845.472 552.757C845.472 554.287 845.189 555.625 844.623 556.77C844.063 557.914 843.279 558.805 842.269 559.442C841.266 560.078 840.095 560.397 838.758 560.397ZM838.758 558.352C839.774 558.352 840.61 558.091 841.266 557.57C841.922 557.049 842.407 556.364 842.722 555.516C843.038 554.667 843.195 553.747 843.195 552.757C843.195 551.766 843.038 550.844 842.722 549.988C842.407 549.133 841.922 548.442 841.266 547.914C840.61 547.387 839.774 547.123 838.758 547.123C837.742 547.123 836.906 547.387 836.25 547.914C835.594 548.442 835.108 549.133 834.793 549.988C834.478 550.844 834.321 551.766 834.321 552.757C834.321 553.747 834.478 554.667 834.793 555.516C835.108 556.364 835.594 557.049 836.25 557.57C836.906 558.091 837.742 558.352 838.758 558.352ZM855.545 545.271V547.2H847.558V545.271H855.545ZM849.95 560.088V543.226C849.95 542.377 850.149 541.67 850.548 541.104C850.947 540.538 851.464 540.114 852.101 539.831C852.738 539.548 853.41 539.406 854.117 539.406C854.677 539.406 855.133 539.451 855.487 539.541C855.841 539.631 856.104 539.715 856.278 539.792L855.622 541.76C855.506 541.721 855.345 541.673 855.14 541.615C854.94 541.557 854.677 541.528 854.349 541.528C853.596 541.528 853.053 541.718 852.718 542.098C852.39 542.477 852.226 543.033 852.226 543.766V560.088H849.95ZM867.494 540.332L873.359 556.962H873.59L879.455 540.332H881.963L874.709 560.088H872.24L864.986 540.332H867.494ZM894.07 554.03V545.271H896.346V560.088H894.07V557.58H893.915C893.568 558.332 893.028 558.972 892.295 559.499C891.562 560.02 890.635 560.281 889.516 560.281C888.59 560.281 887.767 560.078 887.047 559.673C886.327 559.262 885.761 558.644 885.349 557.821C884.938 556.991 884.732 555.946 884.732 554.686V545.271H887.008V554.532C887.008 555.612 887.311 556.474 887.915 557.117C888.526 557.76 889.304 558.081 890.25 558.081C890.816 558.081 891.391 557.937 891.976 557.647C892.568 557.358 893.063 556.914 893.462 556.316C893.867 555.718 894.07 554.956 894.07 554.03ZM906.728 560.397C905.3 560.397 904.069 560.081 903.033 559.451C902.004 558.815 901.21 557.927 900.651 556.789C900.098 555.644 899.821 554.313 899.821 552.795C899.821 551.278 900.098 549.94 900.651 548.782C901.21 547.618 901.988 546.712 902.985 546.062C903.988 545.406 905.159 545.078 906.496 545.078C907.268 545.078 908.03 545.207 908.783 545.464C909.535 545.721 910.22 546.139 910.837 546.718C911.455 547.291 911.946 548.049 912.313 548.995C912.68 549.94 912.863 551.104 912.863 552.487V553.451H901.442V551.483H910.548C910.548 550.647 910.381 549.901 910.046 549.245C909.718 548.59 909.249 548.072 908.638 547.692C908.033 547.313 907.319 547.123 906.496 547.123C905.59 547.123 904.805 547.348 904.143 547.799C903.487 548.242 902.982 548.821 902.628 549.535C902.274 550.249 902.098 551.014 902.098 551.831V553.143C902.098 554.262 902.291 555.21 902.676 555.988C903.069 556.76 903.612 557.348 904.307 557.753C905.001 558.152 905.808 558.352 906.728 558.352C907.326 558.352 907.866 558.268 908.348 558.101C908.837 557.927 909.258 557.67 909.612 557.329C909.966 556.982 910.239 556.551 910.432 556.036L912.631 556.654C912.4 557.4 912.011 558.056 911.464 558.622C910.918 559.181 910.242 559.618 909.438 559.934C908.635 560.242 907.731 560.397 906.728 560.397ZM940.171 546.506H937.779C937.638 545.818 937.39 545.213 937.036 544.692C936.689 544.172 936.265 543.734 935.763 543.381C935.268 543.02 934.718 542.75 934.114 542.57C933.509 542.39 932.879 542.3 932.223 542.3C931.027 542.3 929.943 542.602 928.972 543.207C928.008 543.811 927.239 544.702 926.667 545.879C926.101 547.056 925.818 548.5 925.818 550.21C925.818 551.921 926.101 553.364 926.667 554.541C927.239 555.718 928.008 556.609 928.972 557.213C929.943 557.818 931.027 558.12 932.223 558.12C932.879 558.12 933.509 558.03 934.114 557.85C934.718 557.67 935.268 557.403 935.763 557.049C936.265 556.689 936.689 556.249 937.036 555.728C937.39 555.2 937.638 554.596 937.779 553.914H940.171C939.991 554.924 939.663 555.827 939.188 556.625C938.712 557.422 938.12 558.101 937.413 558.66C936.705 559.213 935.911 559.635 935.03 559.924C934.155 560.213 933.22 560.358 932.223 560.358C930.538 560.358 929.04 559.946 927.728 559.123C926.416 558.3 925.384 557.13 924.631 555.612C923.879 554.094 923.503 552.294 923.503 550.21C923.503 548.127 923.879 546.326 924.631 544.808C925.384 543.291 926.416 542.12 927.728 541.297C929.04 540.474 930.538 540.062 932.223 540.062C933.22 540.062 934.155 540.207 935.03 540.496C935.911 540.786 936.705 541.21 937.413 541.77C938.12 542.323 938.712 542.998 939.188 543.795C939.663 544.586 939.991 545.49 940.171 546.506ZM949.748 560.397C948.41 560.397 947.237 560.078 946.227 559.442C945.224 558.805 944.439 557.914 943.873 556.77C943.314 555.625 943.034 554.287 943.034 552.757C943.034 551.213 943.314 549.866 943.873 548.715C944.439 547.564 945.224 546.67 946.227 546.033C947.237 545.397 948.41 545.078 949.748 545.078C951.085 545.078 952.256 545.397 953.259 546.033C954.269 546.67 955.053 547.564 955.613 548.715C956.179 549.866 956.462 551.213 956.462 552.757C956.462 554.287 956.179 555.625 955.613 556.77C955.053 557.914 954.269 558.805 953.259 559.442C952.256 560.078 951.085 560.397 949.748 560.397ZM949.748 558.352C950.764 558.352 951.6 558.091 952.256 557.57C952.912 557.049 953.397 556.364 953.712 555.516C954.028 554.667 954.185 553.747 954.185 552.757C954.185 551.766 954.028 550.844 953.712 549.988C953.397 549.133 952.912 548.442 952.256 547.914C951.6 547.387 950.764 547.123 949.748 547.123C948.732 547.123 947.896 547.387 947.24 547.914C946.584 548.442 946.098 549.133 945.783 549.988C945.468 550.844 945.311 551.766 945.311 552.757C945.311 553.747 945.468 554.667 945.783 555.516C946.098 556.364 946.584 557.049 947.24 557.57C947.896 558.091 948.732 558.352 949.748 558.352ZM959.937 560.088V545.271H962.136V547.586H962.329C962.638 546.795 963.136 546.181 963.824 545.744C964.512 545.3 965.339 545.078 966.303 545.078C967.281 545.078 968.094 545.3 968.744 545.744C969.4 546.181 969.911 546.795 970.277 547.586H970.432C970.811 546.821 971.38 546.213 972.139 545.763C972.898 545.307 973.808 545.078 974.869 545.078C976.194 545.078 977.277 545.493 978.12 546.323C978.962 547.146 979.384 548.429 979.384 550.172V560.088H977.107V550.172C977.107 549.078 976.808 548.297 976.21 547.827C975.612 547.358 974.908 547.123 974.097 547.123C973.056 547.123 972.249 547.438 971.676 548.069C971.104 548.692 970.818 549.483 970.818 550.442V560.088H968.503V549.94C968.503 549.098 968.229 548.419 967.683 547.905C967.136 547.384 966.432 547.123 965.57 547.123C964.978 547.123 964.425 547.281 963.911 547.596C963.403 547.911 962.991 548.348 962.676 548.908C962.368 549.461 962.213 550.101 962.213 550.827V560.088H959.937ZM983.546 565.644V545.271H985.745V547.625H986.015C986.183 547.368 986.414 547.04 986.71 546.641C987.012 546.236 987.443 545.876 988.003 545.561C988.568 545.239 989.334 545.078 990.298 545.078C991.546 545.078 992.646 545.39 993.597 546.014C994.549 546.638 995.292 547.522 995.826 548.667C996.359 549.811 996.626 551.162 996.626 552.718C996.626 554.287 996.359 555.647 995.826 556.799C995.292 557.943 994.552 558.831 993.607 559.461C992.662 560.085 991.572 560.397 990.337 560.397C989.385 560.397 988.623 560.239 988.051 559.924C987.478 559.602 987.038 559.239 986.729 558.834C986.421 558.422 986.183 558.081 986.015 557.811H985.822V565.644H983.546ZM985.784 552.68C985.784 553.799 985.948 554.786 986.276 555.641C986.604 556.49 987.083 557.155 987.713 557.638C988.343 558.114 989.115 558.352 990.028 558.352C990.98 558.352 991.774 558.101 992.411 557.599C993.054 557.091 993.536 556.409 993.858 555.554C994.186 554.692 994.35 553.734 994.35 552.68C994.35 551.638 994.189 550.699 993.867 549.863C993.552 549.02 993.073 548.355 992.43 547.866C991.793 547.371 990.993 547.123 990.028 547.123C989.102 547.123 988.324 547.358 987.694 547.827C987.064 548.291 986.588 548.94 986.266 549.776C985.945 550.606 985.784 551.573 985.784 552.68ZM1006.12 560.397C1004.78 560.397 1003.61 560.078 1002.6 559.442C1001.59 558.805 1000.81 557.914 1000.24 556.77C999.684 555.625 999.404 554.287 999.404 552.757C999.404 551.213 999.684 549.866 1000.24 548.715C1000.81 547.564 1001.59 546.67 1002.6 546.033C1003.61 545.397 1004.78 545.078 1006.12 545.078C1007.46 545.078 1008.63 545.397 1009.63 546.033C1010.64 546.67 1011.42 547.564 1011.98 548.715C1012.55 549.866 1012.83 551.213 1012.83 552.757C1012.83 554.287 1012.55 555.625 1011.98 556.77C1011.42 557.914 1010.64 558.805 1009.63 559.442C1008.63 560.078 1007.46 560.397 1006.12 560.397ZM1006.12 558.352C1007.13 558.352 1007.97 558.091 1008.63 557.57C1009.28 557.049 1009.77 556.364 1010.08 555.516C1010.4 554.667 1010.56 553.747 1010.56 552.757C1010.56 551.766 1010.4 550.844 1010.08 549.988C1009.77 549.133 1009.28 548.442 1008.63 547.914C1007.97 547.387 1007.13 547.123 1006.12 547.123C1005.1 547.123 1004.27 547.387 1003.61 547.914C1002.95 548.442 1002.47 549.133 1002.15 549.988C1001.84 550.844 1001.68 551.766 1001.68 552.757C1001.68 553.747 1001.84 554.667 1002.15 555.516C1002.47 556.364 1002.95 557.049 1003.61 557.57C1004.27 558.091 1005.1 558.352 1006.12 558.352ZM1026.8 548.59L1024.76 549.168C1024.63 548.827 1024.44 548.496 1024.19 548.175C1023.94 547.847 1023.61 547.577 1023.18 547.364C1022.76 547.152 1022.22 547.046 1021.55 547.046C1020.65 547.046 1019.89 547.255 1019.29 547.673C1018.69 548.085 1018.39 548.609 1018.39 549.245C1018.39 549.811 1018.6 550.258 1019.01 550.586C1019.42 550.914 1020.06 551.188 1020.94 551.406L1023.14 551.946C1024.46 552.268 1025.45 552.76 1026.1 553.422C1026.75 554.078 1027.07 554.924 1027.07 555.959C1027.07 556.808 1026.83 557.567 1026.34 558.236C1025.86 558.905 1025.18 559.432 1024.31 559.818C1023.45 560.204 1022.44 560.397 1021.28 560.397C1019.77 560.397 1018.52 560.069 1017.53 559.413C1016.54 558.757 1015.91 557.799 1015.65 556.538L1017.81 555.998C1018.02 556.795 1018.41 557.393 1018.98 557.792C1019.56 558.191 1020.31 558.39 1021.25 558.39C1022.31 558.39 1023.15 558.165 1023.77 557.715C1024.4 557.258 1024.72 556.712 1024.72 556.075C1024.72 555.561 1024.54 555.13 1024.18 554.782C1023.82 554.429 1023.27 554.165 1022.52 553.991L1020.05 553.413C1018.69 553.091 1017.7 552.593 1017.06 551.917C1016.43 551.236 1016.11 550.384 1016.11 549.361C1016.11 548.525 1016.35 547.786 1016.82 547.143C1017.29 546.5 1017.94 545.995 1018.76 545.628C1019.58 545.262 1020.51 545.078 1021.55 545.078C1023.02 545.078 1024.17 545.4 1025.01 546.043C1025.85 546.686 1026.45 547.535 1026.8 548.59ZM1030.5 560.088V545.271H1032.78V560.088H1030.5ZM1031.66 542.802C1031.21 542.802 1030.83 542.651 1030.51 542.348C1030.19 542.046 1030.04 541.683 1030.04 541.258C1030.04 540.834 1030.19 540.471 1030.51 540.168C1030.83 539.866 1031.21 539.715 1031.66 539.715C1032.1 539.715 1032.48 539.866 1032.79 540.168C1033.12 540.471 1033.28 540.834 1033.28 541.258C1033.28 541.683 1033.12 542.046 1032.79 542.348C1032.48 542.651 1032.1 542.802 1031.66 542.802ZM1043.39 545.271V547.2H1035.71V545.271H1043.39ZM1037.95 541.721H1040.23V555.844C1040.23 556.487 1040.32 556.969 1040.5 557.29C1040.7 557.606 1040.94 557.818 1041.24 557.927C1041.54 558.03 1041.86 558.081 1042.19 558.081C1042.44 558.081 1042.65 558.069 1042.81 558.043C1042.97 558.011 1043.1 557.985 1043.2 557.966L1043.66 560.011C1043.5 560.069 1043.29 560.126 1043.01 560.184C1042.74 560.249 1042.39 560.281 1041.96 560.281C1041.32 560.281 1040.69 560.143 1040.07 559.866C1039.46 559.589 1038.95 559.168 1038.55 558.602C1038.15 558.036 1037.95 557.323 1037.95 556.461V541.721ZM1046.81 560.088V545.271H1049.09V560.088H1046.81ZM1047.97 542.802C1047.53 542.802 1047.14 542.651 1046.82 542.348C1046.51 542.046 1046.35 541.683 1046.35 541.258C1046.35 540.834 1046.51 540.471 1046.82 540.168C1047.14 539.866 1047.53 539.715 1047.97 539.715C1048.41 539.715 1048.79 539.866 1049.11 540.168C1049.43 540.471 1049.59 540.834 1049.59 541.258C1049.59 541.683 1049.43 542.046 1049.11 542.348C1048.79 542.651 1048.41 542.802 1047.97 542.802ZM1059.28 560.397C1057.94 560.397 1056.77 560.078 1055.76 559.442C1054.75 558.805 1053.97 557.914 1053.4 556.77C1052.84 555.625 1052.56 554.287 1052.56 552.757C1052.56 551.213 1052.84 549.866 1053.4 548.715C1053.97 547.564 1054.75 546.67 1055.76 546.033C1056.77 545.397 1057.94 545.078 1059.28 545.078C1060.62 545.078 1061.79 545.397 1062.79 546.033C1063.8 546.67 1064.58 547.564 1065.14 548.715C1065.71 549.866 1065.99 551.213 1065.99 552.757C1065.99 554.287 1065.71 555.625 1065.14 556.77C1064.58 557.914 1063.8 558.805 1062.79 559.442C1061.79 560.078 1060.62 560.397 1059.28 560.397ZM1059.28 558.352C1060.29 558.352 1061.13 558.091 1061.79 557.57C1062.44 557.049 1062.93 556.364 1063.24 555.516C1063.56 554.667 1063.72 553.747 1063.72 552.757C1063.72 551.766 1063.56 550.844 1063.24 549.988C1062.93 549.133 1062.44 548.442 1061.79 547.914C1061.13 547.387 1060.29 547.123 1059.28 547.123C1058.26 547.123 1057.43 547.387 1056.77 547.914C1056.11 548.442 1055.63 549.133 1055.31 549.988C1055 550.844 1054.84 551.766 1054.84 552.757C1054.84 553.747 1055 554.667 1055.31 555.516C1055.63 556.364 1056.11 557.049 1056.77 557.57C1057.43 558.091 1058.26 558.352 1059.28 558.352ZM1071.74 551.175V560.088H1069.47V545.271H1071.67V547.586H1071.86C1072.21 546.834 1072.73 546.229 1073.44 545.773C1074.15 545.31 1075.06 545.078 1076.18 545.078C1077.18 545.078 1078.06 545.284 1078.81 545.696C1079.57 546.101 1080.15 546.718 1080.57 547.548C1080.99 548.371 1081.2 549.413 1081.2 550.673V560.088H1078.92V550.827C1078.92 549.663 1078.62 548.757 1078.01 548.107C1077.41 547.451 1076.58 547.123 1075.53 547.123C1074.8 547.123 1074.15 547.281 1073.58 547.596C1073.01 547.911 1072.56 548.371 1072.24 548.975C1071.91 549.58 1071.74 550.313 1071.74 551.175ZM1106.27 540.332H1108.66V553.413C1108.66 554.763 1108.34 555.969 1107.71 557.03C1107.08 558.085 1106.19 558.917 1105.04 559.528C1103.88 560.133 1102.53 560.435 1100.98 560.435C1099.43 560.435 1098.08 560.133 1096.93 559.528C1095.78 558.917 1094.89 558.085 1094.25 557.03C1093.62 555.969 1093.31 554.763 1093.31 553.413V540.332H1095.7V553.22C1095.7 554.184 1095.91 555.043 1096.33 555.795C1096.76 556.541 1097.36 557.13 1098.15 557.561C1098.94 557.985 1099.88 558.197 1100.98 558.197C1102.08 558.197 1103.03 557.985 1103.82 557.561C1104.61 557.13 1105.22 556.541 1105.63 555.795C1106.06 555.043 1106.27 554.184 1106.27 553.22V540.332ZM1119.58 545.271V547.2H1111.9V545.271H1119.58ZM1114.13 541.721H1116.41V555.844C1116.41 556.487 1116.5 556.969 1116.69 557.29C1116.88 557.606 1117.13 557.818 1117.42 557.927C1117.73 558.03 1118.04 558.081 1118.38 558.081C1118.63 558.081 1118.84 558.069 1119 558.043C1119.16 558.011 1119.29 557.985 1119.38 557.966L1119.85 560.011C1119.69 560.069 1119.48 560.126 1119.2 560.184C1118.92 560.249 1118.57 560.281 1118.15 560.281C1117.5 560.281 1116.87 560.143 1116.26 559.866C1115.65 559.589 1115.14 559.168 1114.73 558.602C1114.33 558.036 1114.13 557.323 1114.13 556.461V541.721ZM1123 560.088V545.271H1125.28V560.088H1123ZM1124.16 542.802C1123.71 542.802 1123.33 542.651 1123.01 542.348C1122.69 542.046 1122.54 541.683 1122.54 541.258C1122.54 540.834 1122.69 540.471 1123.01 540.168C1123.33 539.866 1123.71 539.715 1124.16 539.715C1124.6 539.715 1124.98 539.866 1125.3 540.168C1125.62 540.471 1125.78 540.834 1125.78 541.258C1125.78 541.683 1125.62 542.046 1125.3 542.348C1124.98 542.651 1124.6 542.802 1124.16 542.802ZM1131.72 540.332V560.088H1129.45V540.332H1131.72ZM1146.39 548.59L1144.34 549.168C1144.21 548.827 1144.02 548.496 1143.77 548.175C1143.53 547.847 1143.19 547.577 1142.77 547.364C1142.35 547.152 1141.8 547.046 1141.14 547.046C1140.23 547.046 1139.48 547.255 1138.87 547.673C1138.27 548.085 1137.98 548.609 1137.98 549.245C1137.98 549.811 1138.18 550.258 1138.59 550.586C1139 550.914 1139.65 551.188 1140.52 551.406L1142.72 551.946C1144.05 552.268 1145.03 552.76 1145.68 553.422C1146.33 554.078 1146.66 554.924 1146.66 555.959C1146.66 556.808 1146.41 557.567 1145.92 558.236C1145.44 558.905 1144.77 559.432 1143.9 559.818C1143.03 560.204 1142.02 560.397 1140.87 560.397C1139.36 560.397 1138.11 560.069 1137.12 559.413C1136.13 558.757 1135.5 557.799 1135.24 556.538L1137.4 555.998C1137.6 556.795 1137.99 557.393 1138.56 557.792C1139.14 558.191 1139.9 558.39 1140.83 558.39C1141.89 558.39 1142.73 558.165 1143.36 557.715C1143.99 557.258 1144.3 556.712 1144.3 556.075C1144.3 555.561 1144.12 555.13 1143.76 554.782C1143.4 554.429 1142.85 554.165 1142.1 553.991L1139.63 553.413C1138.28 553.091 1137.28 552.593 1136.64 551.917C1136.01 551.236 1135.7 550.384 1135.7 549.361C1135.7 548.525 1135.93 547.786 1136.4 547.143C1136.88 546.5 1137.53 545.995 1138.34 545.628C1139.17 545.262 1140.1 545.078 1141.14 545.078C1142.61 545.078 1143.76 545.4 1144.59 546.043C1145.44 546.686 1146.03 547.535 1146.39 548.59Z" fill="#35495E" fill-opacity="0.5"/>
<path d="M122.217 218.831V223.979C120.319 223.979 118.59 224.174 117.03 224.564C115.496 224.928 114.3 225.565 113.442 226.475C112.61 227.385 112.259 228.633 112.389 230.219L114.027 246.209C114.261 248.393 114.131 250.2 113.637 251.63C113.143 253.06 112.311 254.178 111.141 254.984C109.997 255.79 108.528 256.362 106.734 256.7C108.554 257.012 110.049 257.558 111.219 258.338C112.389 259.092 113.208 260.184 113.676 261.614C114.144 263.018 114.261 264.877 114.027 267.191L112.389 283.181C112.259 284.793 112.61 286.054 113.442 286.964C114.274 287.874 115.47 288.511 117.03 288.875C118.59 289.239 120.319 289.421 122.217 289.421V294.569C120.033 294.569 117.94 294.374 115.938 293.984C113.936 293.62 112.168 292.983 110.634 292.073C109.1 291.163 107.943 289.915 107.163 288.329C106.383 286.769 106.123 284.793 106.383 282.401L107.943 267.581C108.151 265.787 107.982 264.279 107.436 263.057C106.916 261.835 105.772 260.912 104.004 260.288C102.262 259.638 99.649 259.313 96.165 259.313V254.087C99.649 254.087 102.262 253.775 104.004 253.151C105.772 252.527 106.916 251.604 107.436 250.382C107.982 249.16 108.151 247.665 107.943 245.897L106.383 230.999C106.123 228.607 106.383 226.631 107.163 225.071C107.943 223.485 109.087 222.237 110.595 221.327C112.129 220.417 113.897 219.78 115.899 219.416C117.927 219.026 120.033 218.831 122.217 218.831ZM168.987 218.831V223.979C167.089 223.979 165.36 224.174 163.8 224.564C162.266 224.928 161.07 225.565 160.212 226.475C159.38 227.385 159.029 228.633 159.159 230.219L160.797 246.209C161.031 248.393 160.901 250.2 160.407 251.63C159.913 253.06 159.081 254.178 157.911 254.984C156.767 255.79 155.298 256.362 153.504 256.7C155.324 257.012 156.819 257.558 157.989 258.338C159.159 259.092 159.978 260.184 160.446 261.614C160.914 263.018 161.031 264.877 160.797 267.191L159.159 283.181C159.029 284.793 159.38 286.054 160.212 286.964C161.044 287.874 162.24 288.511 163.8 288.875C165.36 289.239 167.089 289.421 168.987 289.421V294.569C166.803 294.569 164.71 294.374 162.708 293.984C160.706 293.62 158.938 292.983 157.404 292.073C155.87 291.163 154.713 289.915 153.933 288.329C153.153 286.769 152.893 284.793 153.153 282.401L154.713 267.581C154.921 265.787 154.752 264.279 154.206 263.057C153.686 261.835 152.542 260.912 150.774 260.288C149.032 259.638 146.419 259.313 142.935 259.313V254.087C146.419 254.087 149.032 253.775 150.774 253.151C152.542 252.527 153.686 251.604 154.206 250.382C154.752 249.16 154.921 247.665 154.713 245.897L153.153 230.999C152.893 228.607 153.153 226.631 153.933 225.071C154.713 223.485 155.857 222.237 157.365 221.327C158.899 220.417 160.667 219.78 162.669 219.416C164.697 219.026 166.803 218.831 168.987 218.831ZM188.378 284V242.933H193.955L194.462 248.627C196.126 246.521 198.206 244.909 200.702 243.791C203.224 242.647 205.668 242.075 208.034 242.075C212.064 242.075 214.989 243.141 216.809 245.273C218.655 247.405 219.578 250.369 219.578 254.165V284H213.026V259.001C213.026 256.193 212.87 253.931 212.558 252.215C212.246 250.473 211.596 249.212 210.608 248.432C209.62 247.626 208.086 247.223 206.006 247.223C204.394 247.223 202.873 247.574 201.443 248.276C200.039 248.978 198.778 249.862 197.66 250.928C196.568 251.968 195.658 253.021 194.93 254.087V284H188.378ZM264.554 275.03C264.554 276.668 264.827 277.864 265.373 278.618C265.919 279.372 266.764 279.931 267.908 280.295L266.309 284.897C264.541 284.663 262.994 284.104 261.668 283.22C260.342 282.31 259.38 280.945 258.782 279.125C257.3 281.023 255.454 282.466 253.244 283.454C251.034 284.416 248.59 284.897 245.912 284.897C241.804 284.897 238.567 283.74 236.201 281.426C233.835 279.112 232.652 276.044 232.652 272.222C232.652 267.984 234.303 264.734 237.605 262.472C240.907 260.21 245.678 259.079 251.918 259.079H257.963V255.647C257.963 252.683 257.092 250.59 255.35 249.368C253.634 248.12 251.242 247.496 248.174 247.496C246.822 247.496 245.236 247.665 243.416 248.003C241.596 248.315 239.62 248.848 237.488 249.602L235.772 244.649C238.294 243.713 240.66 243.05 242.87 242.66C245.08 242.27 247.186 242.075 249.188 242.075C254.31 242.075 258.145 243.271 260.693 245.663C263.267 248.029 264.554 251.253 264.554 255.335V275.03ZM247.589 279.905C249.617 279.905 251.554 279.398 253.4 278.384C255.246 277.344 256.767 275.914 257.963 274.094V263.525H252.035C247.511 263.525 244.313 264.305 242.441 265.865C240.595 267.425 239.672 269.518 239.672 272.144C239.672 274.692 240.322 276.629 241.622 277.955C242.948 279.255 244.937 279.905 247.589 279.905ZM308.983 242.075C310.309 242.075 311.57 242.361 312.766 242.933C313.988 243.505 314.989 244.61 315.769 246.248C316.549 247.886 316.939 250.278 316.939 253.424V284H310.855V254.477C310.855 251.903 310.699 250.044 310.387 248.9C310.075 247.756 309.178 247.184 307.696 247.184C306.474 247.184 305.252 247.574 304.03 248.354C302.834 249.108 301.664 250.356 300.52 252.098V284H294.397V254.477C294.397 251.903 294.241 250.044 293.929 248.9C293.617 247.756 292.72 247.184 291.238 247.184C289.964 247.184 288.729 247.574 287.533 248.354C286.363 249.108 285.206 250.356 284.062 252.098V284H278.017V242.933H283.165L283.555 247.691C284.673 246.105 285.921 244.779 287.299 243.713C288.703 242.621 290.432 242.075 292.486 242.075C294.046 242.075 295.515 242.452 296.893 243.206C298.271 243.934 299.285 245.364 299.935 247.496C301.053 245.884 302.314 244.584 303.718 243.596C305.122 242.582 306.877 242.075 308.983 242.075ZM333.835 265.787C333.965 268.959 334.576 271.559 335.668 273.587C336.76 275.589 338.203 277.071 339.997 278.033C341.791 278.969 343.741 279.437 345.847 279.437C347.953 279.437 349.851 279.125 351.541 278.501C353.257 277.877 355.012 276.954 356.806 275.732L359.887 280.061C357.963 281.569 355.766 282.752 353.296 283.61C350.852 284.468 348.343 284.897 345.769 284.897C341.791 284.897 338.398 284 335.59 282.206C332.782 280.412 330.637 277.916 329.155 274.718C327.699 271.494 326.971 267.763 326.971 263.525C326.971 259.365 327.712 255.673 329.194 252.449C330.676 249.225 332.756 246.69 335.434 244.844C338.112 242.998 341.271 242.075 344.911 242.075C348.369 242.075 351.346 242.894 353.842 244.532C356.338 246.144 358.249 248.458 359.575 251.474C360.927 254.464 361.603 258.039 361.603 262.199C361.603 262.901 361.59 263.564 361.564 264.188C361.538 264.786 361.499 265.319 361.447 265.787H333.835ZM344.989 247.457C341.947 247.457 339.399 248.536 337.345 250.694C335.317 252.852 334.16 256.193 333.874 260.717H355.285C355.207 256.323 354.245 253.021 352.399 250.811C350.553 248.575 348.083 247.457 344.989 247.457ZM379.2 218.831C381.384 218.831 383.477 219.026 385.479 219.416C387.481 219.78 389.249 220.417 390.783 221.327C392.317 222.237 393.474 223.485 394.254 225.071C395.06 226.631 395.32 228.607 395.034 230.999L393.474 245.897C393.266 247.665 393.487 249.16 394.137 250.382C394.813 251.604 396.035 252.527 397.803 253.151C399.571 253.775 402.054 254.087 405.252 254.087V259.313C402.08 259.313 399.597 259.638 397.803 260.288C396.035 260.912 394.813 261.835 394.137 263.057C393.487 264.279 393.266 265.787 393.474 267.581L395.034 282.401C395.294 284.793 395.034 286.769 394.254 288.329C393.474 289.915 392.317 291.163 390.783 292.073C389.275 292.983 387.507 293.62 385.479 293.984C383.477 294.374 381.384 294.569 379.2 294.569V289.421C381.098 289.421 382.814 289.239 384.348 288.875C385.908 288.511 387.117 287.874 387.975 286.964C388.833 286.054 389.184 284.793 389.028 283.181L387.39 267.191C387.156 264.877 387.286 263.018 387.78 261.614C388.274 260.184 389.158 259.092 390.432 258.338C391.732 257.584 393.435 257.064 395.541 256.778C393.513 256.44 391.849 255.855 390.549 255.023C389.275 254.191 388.378 253.06 387.858 251.63C387.338 250.2 387.182 248.393 387.39 246.209L389.028 230.219C389.184 228.633 388.833 227.385 387.975 226.475C387.117 225.565 385.921 224.928 384.387 224.564C382.853 224.174 381.124 223.979 379.2 223.979V218.831ZM425.97 218.831C428.154 218.831 430.247 219.026 432.249 219.416C434.251 219.78 436.019 220.417 437.553 221.327C439.087 222.237 440.244 223.485 441.024 225.071C441.83 226.631 442.09 228.607 441.804 230.999L440.244 245.897C440.036 247.665 440.257 249.16 440.907 250.382C441.583 251.604 442.805 252.527 444.573 253.151C446.341 253.775 448.824 254.087 452.022 254.087V259.313C448.85 259.313 446.367 259.638 444.573 260.288C442.805 260.912 441.583 261.835 440.907 263.057C440.257 264.279 440.036 265.787 440.244 267.581L441.804 282.401C442.064 284.793 441.804 286.769 441.024 288.329C440.244 289.915 439.087 291.163 437.553 292.073C436.045 292.983 434.277 293.62 432.249 293.984C430.247 294.374 428.154 294.569 425.97 294.569V289.421C427.868 289.421 429.584 289.239 431.118 288.875C432.678 288.511 433.887 287.874 434.745 286.964C435.603 286.054 435.954 284.793 435.798 283.181L434.16 267.191C433.926 264.877 434.056 263.018 434.55 261.614C435.044 260.184 435.928 259.092 437.202 258.338C438.502 257.584 440.205 257.064 442.311 256.778C440.283 256.44 438.619 255.855 437.319 255.023C436.045 254.191 435.148 253.06 434.628 251.63C434.108 250.2 433.952 248.393 434.16 246.209L435.798 230.219C435.954 228.633 435.603 227.385 434.745 226.475C433.887 225.565 432.691 224.928 431.157 224.564C429.623 224.174 427.894 223.979 425.97 223.979V218.831Z" fill="#35495E"/>
<rect width="1280" height="720" transform="translate(-40 -39)" fill="#000011"/>
<g filter="url(#filter0_f_1017_2833)">
<g style="mix-blend-mode:overlay">
<path d="M143.803 425.804C31.0532 336.199 -19.1715 241.535 9.52831 -81.4775C9.52831 -89.9081 29.2082 -116.742 107.928 -156.63C206.327 -206.491 1322.55 -226.002 899.223 127.361C475.901 480.724 256.552 515.41 143.803 425.804Z" fill="#0D42FF"/>
</g>
<g style="mix-blend-mode:overlay">
<path d="M886.306 1075.98C797.726 976.202 729.611 671.801 799.55 540.894C866.602 415.392 1058.38 330.067 1134.54 330.066C1317.34 330.066 1812.37 350.154 1479.79 743.647C1147.22 1137.14 974.887 1175.76 886.306 1075.98Z" fill="#0D42FF"/>
</g>
<g style="mix-blend-mode:overlay">
<path d="M-30.9953 -128.851C83.4737 -190.836 -158.265 -458.383 233.149 -409.789C243.402 -408.989 605.882 -291.736 679.052 -96.0105C752.222 99.7149 280.134 676.331 -128.939 378.149C-538.012 79.9672 -145.464 -66.8661 -30.9953 -128.851Z" fill="#B5FF3D"/>
</g>
<g style="mix-blend-mode:overlay">
<path d="M-158.672 779.497C-357.097 795.193 -404.548 678.39 -138.333 472.135C-5.9156 369.542 903.943 -165.12 580.786 328.208C445.527 534.692 39.7536 763.801 -158.672 779.497Z" fill="black"/>
</g>
<g style="mix-blend-mode:overlay">
<path d="M703.051 1287.82C638.287 1094.86 664.476 548.968 785.598 335.211C901.72 130.279 1142.52 21.8921 1226.84 38.0109C1429.22 76.6976 1970.56 216.539 1471.03 833.175C971.493 1449.81 767.815 1480.78 703.051 1287.82Z" fill="#FBFF47"/>
</g>
<g style="mix-blend-mode:overlay">
<path d="M748.488 58.1652C488.363 11.5814 629.955 -185.956 734.831 -206.094C904.688 -238.711 1128.57 -190.146 1201.73 -145.224C1377.31 -37.4054 1528.94 397.304 1247.31 475.496C968.259 552.973 1263.69 150.429 748.488 58.1652Z" fill="#47FFF4"/>
</g>
</g>
<g style="mix-blend-mode:overlay" opacity="0.6">
<rect x="-40" y="-39" width="1280" height="720" fill="black"/>
</g>
<path d="M106.347 143.131L119.072 130.405L180.928 130.405L193.653 143.131L150 186.784L106.347 143.131Z" fill="white"/>
<path d="M150.001 90.216L166.371 106.586L150.001 122.956L133.631 106.586L150.001 90.216Z" fill="url(#paint0_linear_1017_2833)"/>
<text fill="#FFFFFF" font-weight="700" xml:space="preserve" style="white-space: pre" font-family="Inter, Helvetica, sans-serif" 
font-size="90" letter-spacing="0em"><tspan x="116" y="285.066">{{title}}</tspan></text>
<text fill="#FFFFFF" fill-opacity="0.7" xml:space="preserve" style="white-space: pre" 
font-family="Inter, Helvetica, sans-serif" font-size="36" letter-spacing="0em"><tspan x="120" 
y="360.409">{{line1}}&#10;</tspan><tspan x="120" y="415.409">{{line2}}&#10;</tspan><tspan x="120" 
y="470.409">{{line3}}</tspan></text>
<text fill="#FFFFFF" xml:space="preserve" style="white-space: pre" 
font-family="Inter, Helvetica, sans-serif" font-weight="500" font-size="32" letter-spacing="0em"><tspan x="1000" 
y="80">gemcase</tspan></text>
<defs>
<filter id="filter0_f_1017_2833" x="-552.891" y="-645.654" width="2459.72" height="2268.42" filterUnits="userSpaceOnUse" color-interpolation-filters="sRGB">
<feFlood flood-opacity="0" result="BackgroundImageFix"/>
<feBlend mode="normal" in="SourceGraphic" in2="BackgroundImageFix" result="shape"/>
<feGaussianBlur stdDeviation="115" result="effect1_foregroundBlur_1017_2833"/>
</filter>
<linearGradient id="paint0_linear_1017_2833" x1="136.453" y1="107.508" x2="162.498" y2="107.508" gradientUnits="userSpaceOnUse">
<stop stop-color="#56FF47"/>
<stop offset="1" stop-color="#00FFE0"/>
</linearGradient>
</defs>
</svg>
